<svg width="1046" height="314" viewBox="0 0 1046 314" fill="none" xmlns="http://www.w3.org/2000/svg">
<path d="M650.076 211.015V208.407L663.21 205.892V180.928L676.437 178.227V206.078H694.694V210.829H676.623V284.509C676.623 288.297 677.555 291.215 679.418 293.265C681.281 295.314 683.64 296.339 686.497 296.339C690.099 296.339 693.545 295.128 696.836 292.706L698.327 294.755C693.731 298.854 688.267 300.903 681.933 300.903C675.474 300.903 670.6 298.76 667.308 294.476C664.079 290.129 662.465 284.323 662.465 277.057V211.015H650.076Z" fill="#1F1915"/>
<path d="M601.266 297.456V295.966L610.674 291.309V211.946L601.639 207.196V205.892L624.74 205.147V291.309L633.961 296.339V297.456H601.266ZM610.022 183.629C608.035 181.642 607.042 179.283 607.042 176.55C607.042 173.818 608.035 171.458 610.022 169.471C612.009 167.422 614.369 166.397 617.102 166.397C619.772 166.397 622.1 167.422 624.088 169.471C626.075 171.458 627.068 173.818 627.068 176.55C627.068 179.283 626.075 181.642 624.088 183.629C622.1 185.617 619.772 186.61 617.102 186.61C614.369 186.61 612.009 185.617 610.022 183.629Z" fill="#1F1915"/>
<path d="M487.067 252.28C487.067 243.275 488.961 234.985 492.749 227.409C496.537 219.833 501.908 213.778 508.863 209.245C515.881 204.712 523.736 202.445 532.43 202.445C542.49 202.445 551.215 206.264 558.605 213.903V170.03L549.476 165.279V163.882L572.67 162.951V288.887L582.264 294.01V295.314L558.605 297.456V290.005C555.686 293.172 551.96 295.78 547.427 297.829C542.894 299.878 537.895 300.903 532.43 300.903C523.798 300.903 515.974 298.729 508.957 294.382C502.002 289.973 496.599 284.074 492.749 276.684C488.961 269.295 487.067 261.16 487.067 252.28ZM503.833 251.628C503.833 259.638 505.044 267.09 507.466 273.983C509.888 280.876 513.49 286.527 518.271 290.936C523.053 295.283 528.549 297.456 534.759 297.456C539.168 297.456 543.546 296.463 547.893 294.476C552.302 292.488 555.872 289.973 558.605 286.931V217.535C556.059 214.244 552.612 211.481 548.265 209.245C543.918 207.01 539.292 205.892 534.386 205.892C529.48 205.892 525.04 207.165 521.066 209.711C517.092 212.195 513.862 215.579 511.379 219.864C508.957 224.149 507.094 228.993 505.79 234.395C504.486 239.798 503.833 245.542 503.833 251.628Z" fill="#1F1915"/>
<path d="M374.73 252.28C374.73 243.275 376.624 234.985 380.412 227.409C384.2 219.833 389.572 213.778 396.527 209.245C403.544 204.712 411.4 202.445 420.093 202.445C430.153 202.445 438.878 206.264 446.268 213.903V170.03L437.14 165.279V163.882L460.333 162.951V288.887L469.928 294.01V295.314L446.268 297.456V290.005C443.349 293.172 439.623 295.78 435.09 297.829C430.557 299.878 425.558 300.903 420.093 300.903C411.462 300.903 403.637 298.729 396.62 294.382C389.665 289.973 384.262 284.074 380.412 276.684C376.624 269.295 374.73 261.16 374.73 252.28ZM391.497 251.628C391.497 259.638 392.708 267.09 395.13 273.983C397.552 280.876 401.153 286.527 405.935 290.936C410.717 295.283 416.212 297.456 422.422 297.456C426.831 297.456 431.209 296.463 435.556 294.476C439.965 292.488 443.536 289.973 446.268 286.931V217.535C443.722 214.244 440.276 211.481 435.929 209.245C431.582 207.01 426.955 205.892 422.05 205.892C417.144 205.892 412.704 207.165 408.729 209.711C404.755 212.195 401.526 215.579 399.042 219.864C396.62 224.149 394.757 228.993 393.453 234.395C392.149 239.798 391.497 245.542 391.497 251.628Z" fill="#1F1915"/>
<path d="M273.758 249.578C273.758 242.934 274.969 236.693 277.391 230.856C279.875 224.956 283.166 219.957 287.264 215.859C291.425 211.698 296.3 208.438 301.889 206.078C307.54 203.656 313.47 202.445 319.68 202.445C328.808 202.445 336.478 204.495 342.687 208.593C348.897 212.567 353.306 217.908 355.914 224.615C358.212 230.452 359.392 237.065 359.454 244.455C359.454 245.511 359.423 246.566 359.361 247.622L289.966 247.902C289.966 262.184 293.257 273.828 299.839 282.832C306.422 291.836 314.898 296.339 325.269 296.339C337.005 296.339 347.19 292.147 355.821 283.764L357.498 285.627C355.014 287.924 352.778 289.818 350.791 291.309C348.866 292.799 346.413 294.382 343.433 296.059C340.514 297.674 337.223 298.885 333.559 299.692C329.957 300.499 325.983 300.903 321.636 300.903C314.929 300.903 308.657 299.723 302.82 297.363C297.045 295.003 291.984 291.681 287.637 287.396C283.352 283.049 279.968 277.647 277.484 271.189C275 264.668 273.758 257.465 273.758 249.578ZM289.966 244.828H343.805C343.681 239.425 343.091 234.426 342.035 229.831C341.042 225.236 339.551 221.106 337.564 217.442C335.639 213.716 333.031 210.798 329.74 208.686C326.511 206.575 322.785 205.519 318.562 205.519C313.284 205.519 308.471 207.382 304.124 211.108C299.777 214.834 296.393 219.678 293.971 225.639C291.549 231.601 290.214 237.997 289.966 244.828Z" fill="#1F1915"/>
<path d="M154.249 297.456V295.966L164.588 291.309V170.03L154.249 165.466V163.882H206.971C214.857 163.882 222.061 165.435 228.581 168.539C235.101 171.644 240.287 176.084 244.137 181.86C248.049 187.635 250.005 194.124 250.005 201.328C250.005 212.567 246.217 221.541 238.641 228.247C231.127 234.954 220.819 238.307 207.716 238.307C212.746 239.674 217.155 242.002 220.943 245.293C224.793 248.523 228.395 252.745 231.748 257.962L249.633 285.999C251.682 289.29 253.886 291.681 256.246 293.172C258.606 294.6 261.959 295.531 266.306 295.966V297.456H237.989L210.976 254.329C204.332 244.02 194.986 238.866 182.939 238.866H180.051V291.309L189.925 295.966V297.456H154.249ZM180.051 235.047H202.779C212.094 235.047 219.515 231.787 225.041 225.267C230.63 218.746 233.425 210.767 233.425 201.328C233.425 191.951 230.63 184.002 225.041 177.482C219.515 170.961 212.094 167.701 202.779 167.701H180.051V235.047Z" fill="#1F1915"/>
<path d="M661.599 211.882H649.209V207.689L649.913 207.557L662.344 205.172V180.219L663.035 180.08L677.306 177.163V205.213H695.563V211.696H677.492V284.51L677.533 285.831C677.713 288.605 678.475 290.748 679.755 292.328L680.059 292.68C681.752 294.543 683.878 295.471 686.498 295.471L686.497 296.339L685.448 296.291C683.4 296.099 681.631 295.329 680.141 293.984L679.418 293.265C677.788 291.472 676.869 289.013 676.665 285.889L676.623 284.509V210.829H694.694V206.078H676.437V178.227L663.21 180.928V205.892L650.076 208.407V211.015H662.465V277.057L662.483 278.403C662.673 285.043 664.281 290.401 667.308 294.476C670.394 298.492 674.872 300.626 680.74 300.877L681.933 300.903C688.267 300.903 693.731 298.854 698.327 294.755L696.836 292.706C693.545 295.128 690.099 296.339 686.497 296.339L686.498 295.471C689.89 295.471 693.159 294.334 696.321 292.006L697.026 291.492L699.488 294.879L698.902 295.404C694.144 299.647 688.472 301.772 681.933 301.772C675.68 301.772 670.758 299.814 667.293 295.827L666.619 295.004L666.612 294.994C663.24 290.454 661.599 284.447 661.599 277.059V211.882Z" fill="#1F1915"/>
<path d="M600.399 295.427L600.88 295.19L609.809 290.77V212.471L600.772 207.719V205.054L624.713 204.281L625.607 204.251V290.79L634.83 295.824V298.324H600.399V295.427ZM627.068 176.55C627.068 173.818 626.075 171.458 624.088 169.471C622.349 167.678 620.349 166.67 618.087 166.446L617.102 166.397C614.369 166.397 612.009 167.422 610.022 169.471C608.035 171.458 607.042 173.818 607.042 176.55C607.042 179.283 608.035 181.642 610.022 183.629C612.009 185.617 614.369 186.61 617.102 186.61C619.438 186.61 621.513 185.849 623.327 184.327L624.088 183.629C625.826 181.891 626.806 179.866 627.023 177.556L627.068 176.55ZM601.639 207.196L610.674 211.946V291.309L601.266 295.966V297.456H633.961V296.339L624.74 291.309V205.147L601.639 205.892V207.196ZM627.883 177.644C627.645 180.156 626.579 182.366 624.702 184.243C622.562 186.383 620.015 187.477 617.102 187.477C614.503 187.477 612.203 186.644 610.232 184.998L609.409 184.243C607.265 182.098 606.174 179.52 606.174 176.55C606.174 173.581 607.265 171.002 609.409 168.858C611.55 166.655 614.127 165.532 617.102 165.532C620.019 165.532 622.563 166.66 624.699 168.858C626.843 171.002 627.937 173.581 627.937 176.55L627.883 177.644Z" fill="#1F1915"/>
<path d="M486.2 252.281C486.2 243.151 488.123 234.727 491.975 227.023C495.83 219.312 501.303 213.138 508.389 208.519L508.393 208.515C515.556 203.888 523.578 201.578 532.432 201.578C542.069 201.579 550.516 205.008 557.737 211.825V170.555L549.076 166.05L548.609 165.806V163.049L572.634 162.083L573.539 162.05V288.365L583.131 293.49V296.105L557.737 298.405V292.098C554.989 294.685 551.67 296.861 547.782 298.618C543.127 300.723 538.006 301.771 532.432 301.772C524.195 301.772 516.662 299.824 509.853 295.925L508.501 295.119L508.491 295.116C501.848 290.905 496.594 285.354 492.734 278.478L491.978 277.086V277.079C488.124 269.559 486.2 261.288 486.2 252.281ZM503.833 251.628C503.833 246.302 504.332 241.238 505.331 236.436L505.79 234.395C507.094 228.993 508.957 224.149 511.379 219.864C513.707 215.847 516.691 212.623 520.329 210.189L521.066 209.711C525.04 207.165 529.48 205.892 534.386 205.892L535.304 205.904C539.87 206.035 544.19 207.15 548.265 209.245C552.612 211.481 556.059 214.244 558.605 217.535V286.931C555.872 289.973 552.302 292.488 547.893 294.476C543.546 296.463 539.168 297.456 534.759 297.456V296.589C539.033 296.589 543.288 295.626 547.532 293.686L549.117 292.931C552.598 291.174 555.462 289.052 557.737 286.583V217.844C555.299 214.767 552.02 212.151 547.867 210.016C543.644 207.844 539.154 206.761 534.386 206.761C529.639 206.761 525.364 207.99 521.535 210.443L521.525 210.446C517.678 212.851 514.542 216.127 512.125 220.296C509.75 224.501 507.918 229.269 506.631 234.6C505.345 239.93 504.701 245.605 504.701 251.628C504.701 259.55 505.898 266.903 508.284 273.695C510.664 280.47 514.192 285.995 518.856 290.296C523.485 294.503 528.774 296.589 534.759 296.589V297.456C528.937 297.456 523.744 295.545 519.178 291.725L518.271 290.936C513.789 286.802 510.344 281.577 507.935 275.26L507.466 273.983C505.044 267.09 503.833 259.638 503.833 251.628ZM549.476 165.279L558.605 170.03V213.903C551.677 206.742 543.576 202.937 534.301 202.489L532.43 202.445C523.736 202.445 515.881 204.712 508.863 209.245C501.908 213.778 496.537 219.833 492.749 227.409L492.06 228.838C488.731 236.024 487.067 243.838 487.067 252.28L487.091 253.934C487.312 262.173 489.197 269.756 492.749 276.684C496.599 284.074 502.002 289.973 508.957 294.382C515.534 298.457 522.823 300.623 530.819 300.877L532.43 300.903C537.895 300.903 542.894 299.878 547.427 297.829C551.96 295.78 555.686 293.172 558.605 290.005V297.456L582.264 295.314V294.01L572.67 288.887V162.951L549.476 163.882V165.279Z" fill="#1F1915"/>
<path d="M373.863 252.281C373.863 243.151 375.787 234.727 379.638 227.023C383.494 219.312 388.966 213.138 396.053 208.519L396.056 208.515C403.219 203.888 411.242 201.578 420.095 201.578C429.732 201.579 438.179 205.008 445.401 211.825V170.555L436.74 166.05L436.272 165.806V163.049L460.298 162.083L461.202 162.05V288.365L470.795 293.49V296.105L445.401 298.405V292.098C442.652 294.685 439.334 296.861 435.446 298.618C430.791 300.723 425.67 301.771 420.095 301.772C411.859 301.772 404.326 299.824 397.516 295.925L396.165 295.119L396.154 295.116C389.512 290.905 384.258 285.354 380.397 278.478L379.642 277.086V277.079C375.787 269.559 373.863 261.288 373.863 252.281ZM391.497 251.628C391.497 246.302 391.996 241.238 392.994 236.436L393.453 234.395C394.757 228.993 396.62 224.149 399.042 219.864C401.371 215.847 404.354 212.623 407.993 210.189L408.729 209.711C412.704 207.165 417.144 205.892 422.05 205.892L422.967 205.904C427.533 206.035 431.854 207.15 435.929 209.245C440.276 211.481 443.722 214.244 446.268 217.535V286.931C443.536 289.973 439.965 292.488 435.556 294.476C431.209 296.463 426.831 297.456 422.422 297.456V296.589C426.697 296.589 430.952 295.626 435.195 293.686L436.78 292.931C440.262 291.174 443.126 289.052 445.401 286.583V217.844C442.962 214.767 439.683 212.151 435.531 210.016C431.307 207.844 426.817 206.761 422.05 206.761C417.303 206.761 413.027 207.99 409.199 210.443L409.188 210.446C405.341 212.851 402.206 216.127 399.789 220.296C397.413 224.501 395.582 229.269 394.295 234.6C393.009 239.93 392.364 245.605 392.364 251.628C392.364 259.55 393.561 266.903 395.948 273.695C398.328 280.47 401.856 285.995 406.519 290.296C411.148 294.503 416.438 296.589 422.422 296.589V297.456C416.601 297.456 411.407 295.545 406.841 291.725L405.935 290.936C401.452 286.802 398.008 281.577 395.599 275.26L395.13 273.983C392.708 267.09 391.497 259.638 391.497 251.628ZM437.14 165.279L446.268 170.03V213.903C439.34 206.742 431.239 202.937 421.965 202.489L420.093 202.445C411.4 202.445 403.544 204.712 396.527 209.245C389.572 213.778 384.2 219.833 380.412 227.409L379.723 228.838C376.394 236.024 374.73 243.838 374.73 252.28L374.754 253.934C374.976 262.173 376.861 269.756 380.412 276.684C384.262 284.074 389.665 289.973 396.62 294.382C403.198 298.457 410.487 300.623 418.483 300.877L420.093 300.903C425.558 300.903 430.557 299.878 435.09 297.829C439.623 295.78 443.349 293.172 446.268 290.005V297.456L469.928 295.314V294.01L460.333 288.887V162.951L437.14 163.882V165.279Z" fill="#1F1915"/>
<path d="M359.454 244.455C359.392 237.065 358.212 230.452 355.914 224.615C353.306 217.908 348.897 212.567 342.687 208.593C336.866 204.751 329.762 202.709 321.375 202.469L319.68 202.445C313.47 202.445 307.54 203.656 301.889 206.078L300.849 206.53C295.693 208.848 291.165 211.959 287.264 215.859L286.504 216.638C282.756 220.585 279.719 225.325 277.391 230.856C274.969 236.693 273.758 242.934 273.758 249.578C273.758 257.465 275 264.668 277.484 271.189C279.968 277.647 283.352 283.049 287.637 287.396C291.984 291.681 297.045 295.003 302.82 297.363C308.292 299.575 314.147 300.749 320.383 300.888L321.636 300.903C325.983 300.903 329.957 300.499 333.559 299.692C336.765 298.986 339.686 297.971 342.322 296.647L343.433 296.059C346.413 294.382 348.866 292.799 350.791 291.309C352.778 289.818 355.014 287.924 357.498 285.627L355.821 283.764C347.19 292.147 337.005 296.339 325.269 296.339L325.27 295.471C336.774 295.471 346.743 291.372 355.217 283.142L355.864 282.515L356.467 283.183L358.716 285.682L358.086 286.262C355.587 288.573 353.329 290.49 351.311 292.003L351.308 292C349.341 293.521 346.857 295.13 343.859 296.816L343.853 296.82C340.853 298.479 337.48 299.712 333.745 300.535C330.072 301.358 326.035 301.772 321.636 301.772C315.251 301.772 309.242 300.717 303.616 298.605L302.495 298.168L302.492 298.164C296.982 295.913 292.103 292.8 287.866 288.822L287.029 288.013L287.019 288.006C282.913 283.841 279.63 278.739 277.159 272.716L276.674 271.5C274.148 264.869 272.891 257.557 272.891 249.578C272.891 242.826 274.122 236.47 276.59 230.522L276.593 230.519C279.116 224.527 282.464 219.431 286.65 215.246C290.891 211.005 295.86 207.682 301.546 205.28C307.307 202.812 313.355 201.578 319.682 201.578C328.935 201.579 336.776 203.655 343.155 207.862C349.515 211.932 354.047 217.417 356.724 224.3C358.92 229.879 360.106 236.134 360.297 243.055L360.321 244.447V244.457L360.297 246.066C360.282 246.602 360.258 247.139 360.226 247.675L360.179 248.488H359.366L290.843 248.762C290.965 261.639 293.821 272.246 299.369 280.636L300.54 282.319C306.974 291.12 315.2 295.471 325.27 295.471L325.269 296.339L324.302 296.325C315.011 296.07 307.276 292.117 301.096 284.466L299.839 282.832C293.257 273.828 289.966 262.184 289.966 247.902L359.361 247.622C359.392 247.094 359.415 246.566 359.43 246.039L359.454 244.455ZM320.122 205.568C323.708 205.799 326.914 206.839 329.74 208.686C333.031 210.798 335.639 213.716 337.564 217.442C339.551 221.106 341.042 225.236 342.035 229.831C343.091 234.426 343.681 239.425 343.805 244.828H289.966C290.199 238.424 291.386 232.402 293.529 226.762L293.971 225.639C296.241 220.05 299.359 215.445 303.321 211.821L304.124 211.108C308.471 207.382 313.284 205.519 318.562 205.519L320.122 205.568ZM318.564 206.388C313.511 206.388 308.894 208.164 304.69 211.767C300.46 215.392 297.152 220.117 294.775 225.966C292.5 231.567 291.209 237.564 290.884 243.962H342.908C342.765 239.614 342.319 235.541 341.559 231.745L341.19 230.024L341.187 230.014C340.331 226.055 339.104 222.459 337.508 219.222L336.8 217.857L336.794 217.84C335.166 214.689 333.041 212.153 330.422 210.212L329.271 209.416L329.264 209.413C326.19 207.403 322.634 206.388 318.564 206.388Z" fill="#1F1915"/>
<path d="M153.384 295.407L153.892 295.177L163.721 290.75V170.592L153.898 166.26L153.384 166.03V163.015H206.972L206.971 163.882H154.249V165.466L164.588 170.03V291.309L154.249 295.966V297.456H189.925V295.966L180.051 291.309V238.866H182.939C194.986 238.866 204.332 244.02 210.976 254.329L237.989 297.456H266.306V295.966C261.959 295.531 258.606 294.6 256.246 293.172C253.886 291.681 251.682 289.29 249.633 285.999L231.748 257.962C228.395 252.745 224.793 248.523 220.943 245.293C217.155 242.002 212.746 239.674 207.716 238.307C220.819 238.307 231.127 234.954 238.641 228.247C245.744 221.96 249.516 213.68 249.959 203.407L250.005 201.328C250.005 194.575 248.286 188.45 244.848 182.952L244.137 181.86C240.527 176.445 235.745 172.203 229.789 169.136L228.581 168.539C222.469 165.629 215.756 164.081 208.442 163.899L206.971 163.882L206.972 163.015C214.475 163.015 221.387 164.4 227.699 167.181L228.955 167.757C235.609 170.926 240.915 175.466 244.855 181.374C248.868 187.297 250.874 193.957 250.874 201.328L250.827 203.448C250.373 213.928 246.513 222.436 239.215 228.896C232.444 234.939 223.5 238.287 212.456 239.017C215.776 240.408 218.789 242.28 221.497 244.63C224.936 247.514 228.17 251.161 231.194 255.56L232.478 257.494L250.362 285.533L250.369 285.54C252.371 288.755 254.486 291.03 256.697 292.43C258.9 293.763 262.107 294.674 266.391 295.102L267.173 295.18V298.324H237.508L210.241 254.788C203.956 245.044 195.244 240.051 184.031 239.749L182.94 239.735H180.918V290.756L190.294 295.18L190.792 295.417V298.324H153.384V295.407ZM232.559 201.328C232.559 192.712 230.155 185.368 225.372 179.253L224.383 178.047L224.379 178.044C219.367 172.131 212.753 168.975 204.459 168.604L202.779 168.57H180.918V234.18H202.779V235.047H180.051V167.701H202.779C212.094 167.701 219.515 170.961 225.041 177.482C230.63 184.002 233.425 191.951 233.425 201.328L233.393 203.079C233.065 211.758 230.281 219.153 225.041 225.267C219.515 231.787 212.094 235.047 202.779 235.047V234.18C211.865 234.18 219.033 231.013 224.379 224.706L224.383 224.703C229.823 218.355 232.559 210.582 232.559 201.328Z" fill="#1F1915"/>
<path d="M609.593 183.523C607.586 181.516 606.583 179.07 606.583 176.185C606.583 173.299 607.586 170.853 609.593 168.846C611.663 166.839 614.141 165.836 617.026 165.836C619.911 165.836 622.357 166.839 624.364 168.846C626.371 170.853 627.375 173.299 627.375 176.185C627.375 179.07 626.371 181.516 624.364 183.523C622.357 185.593 619.911 186.628 617.026 186.628C614.141 186.628 611.663 185.593 609.593 183.523Z" fill="#CE4522"/>
<path d="M627.375 176.185C627.375 173.66 626.607 171.472 625.071 169.619L624.364 168.846C622.608 167.09 620.516 166.103 618.088 165.884L617.026 165.836C614.141 165.836 611.663 166.839 609.593 168.846C607.586 170.853 606.583 173.299 606.583 176.185C606.583 179.07 607.586 181.516 609.593 183.523C611.405 185.334 613.528 186.352 615.964 186.578L617.026 186.628C619.549 186.627 621.738 185.835 623.589 184.252L624.364 183.523C626.12 181.767 627.109 179.674 627.328 177.245L627.375 176.185ZM628.201 177.331C627.962 179.957 626.887 182.24 624.985 184.142L624.982 184.139C622.811 186.373 620.145 187.505 617.027 187.505C614.102 187.505 611.545 186.511 609.398 184.549L608.974 184.142C606.8 181.968 605.707 179.298 605.707 176.185C605.707 173.071 606.8 170.401 608.974 168.227L608.984 168.217C611.218 166.052 613.915 164.96 617.027 164.96C619.946 164.96 622.475 165.922 624.571 167.834L624.985 168.227C627.159 170.401 628.252 173.072 628.252 176.185L628.201 177.331Z" fill="#CE4522"/>
<path d="M813.107 207.841V205.233H819.085V186.163H813.107V183.555H828.095V186.163H822.134V205.233H828.095V207.841H813.107Z" fill="#CE4522"/>
<path d="M854.788 207.841V183.555H869.657V186.332H857.802V194.496H868.489V197.256H857.802V207.841H854.788Z" fill="#CE4522"/>
<path d="M877.161 190.228L881.395 188.805V188.653L877.161 187.23L878.363 184.876L882.004 187.45L882.157 187.315L881.666 182.861H884.308L883.817 187.315L883.952 187.45L887.593 184.876L888.813 187.23L884.579 188.653V188.805L888.813 190.228L887.593 192.582L883.884 190.109L883.749 190.228L884.308 194.597H881.666L882.225 190.228L882.089 190.109L878.363 192.582L877.161 190.228Z" fill="#CE4522"/>
<path d="M895.13 195.698C895.13 194.174 895.232 192.785 895.435 191.532C895.65 190.267 895.983 189.121 896.435 188.094C896.897 187.055 897.468 186.18 898.145 185.469C898.834 184.757 899.669 184.21 900.652 183.826C901.634 183.442 902.74 183.25 903.971 183.25C909.063 183.25 911.897 186.062 912.473 191.684H909.357C909.199 189.833 908.707 188.438 907.883 187.501C907.07 186.564 905.766 186.095 903.971 186.095C903.169 186.095 902.452 186.214 901.82 186.451C901.199 186.688 900.685 187.038 900.279 187.501C899.873 187.964 899.528 188.478 899.246 189.042C898.975 189.607 898.766 190.273 898.619 191.041C898.484 191.808 898.388 192.554 898.331 193.276C898.275 193.999 898.247 194.806 898.247 195.698C898.247 196.455 898.264 197.149 898.297 197.781C898.331 198.413 898.399 199.068 898.501 199.746C898.614 200.423 898.755 201.027 898.924 201.558C899.105 202.089 899.342 202.602 899.635 203.099C899.929 203.585 900.273 203.985 900.669 204.302C901.064 204.618 901.538 204.872 902.091 205.064C902.656 205.256 903.282 205.352 903.971 205.352C905.676 205.352 906.924 204.906 907.714 204.014C908.516 203.122 909.074 201.772 909.391 199.966H912.473C912.123 202.608 911.276 204.635 909.932 206.046C908.589 207.446 906.602 208.146 903.971 208.146C902.424 208.146 901.075 207.847 899.923 207.248C898.783 206.65 897.863 205.792 897.163 204.674C896.474 203.556 895.96 202.252 895.622 200.762C895.294 199.272 895.13 197.584 895.13 195.698Z" fill="#CE4522"/>
<path d="M916.216 207.841V183.555H919.231V194.868L928.952 183.555H932.56V183.911L922.957 195.038L932.898 207.502V207.841H929.257L919.231 195.224V207.841H916.216Z" fill="#CE4522"/>
<path d="M937.794 207.841V205.233H943.772V186.163H937.794V183.555H952.782V186.163H946.82V205.233H952.782V207.841H937.794Z" fill="#CE4522"/>
<path d="M958.27 207.841V183.555H961.572L970.853 201.947H971.006V183.555H973.986V207.841H970.65L961.352 189.567H961.217V207.841H958.27Z" fill="#CE4522"/>
<path d="M978.255 195.698C978.255 194.174 978.357 192.785 978.56 191.532C978.774 190.267 979.107 189.121 979.559 188.094C980.022 187.055 980.592 186.18 981.27 185.469C981.958 184.757 982.794 184.21 983.776 183.826C984.758 183.442 985.865 183.25 987.096 183.25C989.738 183.25 991.742 183.961 993.108 185.384C994.485 186.807 995.315 188.788 995.598 191.329H992.481C992.402 190.516 992.25 189.804 992.024 189.195C991.81 188.574 991.499 188.026 991.093 187.552C990.686 187.078 990.15 186.716 989.484 186.468C988.817 186.22 988.021 186.095 987.096 186.095C986.294 186.095 985.577 186.214 984.945 186.451C984.324 186.688 983.81 187.038 983.404 187.501C982.997 187.964 982.653 188.478 982.37 189.042C982.1 189.607 981.891 190.273 981.744 191.041C981.608 191.808 981.512 192.554 981.456 193.276C981.4 193.999 981.371 194.806 981.371 195.698C981.371 196.455 981.388 197.149 981.422 197.781C981.456 198.413 981.524 199.068 981.625 199.746C981.738 200.423 981.879 201.027 982.049 201.558C982.229 202.089 982.466 202.602 982.76 203.099C983.054 203.585 983.398 203.985 983.793 204.302C984.188 204.618 984.663 204.872 985.216 205.064C985.78 205.256 986.407 205.352 987.096 205.352C988.033 205.352 988.857 205.222 989.568 204.962C990.28 204.702 990.855 204.352 991.296 203.912C991.736 203.472 992.092 202.924 992.363 202.269C992.634 201.614 992.82 200.931 992.922 200.22C993.035 199.509 993.091 198.707 993.091 197.815H986.435V195.071H995.97V197.121C995.97 198.848 995.812 200.372 995.496 201.693C995.18 203.003 994.677 204.149 993.989 205.131C993.3 206.114 992.38 206.865 991.228 207.384C990.076 207.892 988.699 208.146 987.096 208.146C985.549 208.146 984.2 207.847 983.048 207.248C981.908 206.65 980.987 205.792 980.287 204.674C979.599 203.556 979.085 202.252 978.746 200.762C978.419 199.272 978.255 197.584 978.255 195.698Z" fill="#CE4522"/>
<path d="M729.813 245.995V221.708H732.827V232.056H742.227V221.708H745.258V245.995H742.227V234.868H732.827V245.995H729.813Z" fill="#CE4522"/>
<path d="M749.103 245.995V245.656L756.284 221.708H760.349L767.564 245.656V245.995H764.329L762.534 239.644H754.066L752.254 245.995H749.103ZM754.828 236.934H761.772L758.367 225.079H758.232L754.828 236.934Z" fill="#CE4522"/>
<path d="M770.206 224.486V221.708H787.955V224.486H780.605V245.995H777.557V224.486H770.206Z" fill="#CE4522"/>
<path d="M792.444 245.995V221.708H807.314V224.486H795.459V232.09H806.247V234.868H795.459V243.251H807.314V245.995H792.444Z" fill="#CE4522"/>
<path d="M832.55 224.486V221.708H850.299V224.486H842.949V245.995H839.9V224.486H832.55Z" fill="#CE4522"/>
<path d="M854.5 245.995V221.708H857.514V232.056H866.914V221.708H869.945V245.995H866.914V234.868H857.514V245.995H854.5Z" fill="#CE4522"/>
<path d="M875.569 245.995V221.708H890.438V224.486H878.583V232.09H889.372V234.868H878.583V243.251H890.438V245.995H875.569Z" fill="#CE4522"/>
<path d="M917.131 245.995V221.708H932.001V224.486H920.146V232.649H930.832V235.41H920.146V245.995H917.131Z" fill="#CE4522"/>
<path d="M936.523 233.852C936.523 232.384 936.619 231.035 936.811 229.804C937.015 228.573 937.336 227.433 937.777 226.383C938.228 225.333 938.787 224.446 939.453 223.724C940.131 222.99 940.966 222.42 941.96 222.013C942.965 221.607 944.099 221.404 945.364 221.404C946.617 221.404 947.741 221.607 948.734 222.013C949.739 222.42 950.58 222.99 951.258 223.724C951.935 224.446 952.494 225.333 952.934 226.383C953.386 227.433 953.708 228.573 953.9 229.804C954.103 231.035 954.205 232.384 954.205 233.852C954.205 235.681 954.041 237.335 953.713 238.814C953.386 240.282 952.878 241.586 952.189 242.726C951.512 243.866 950.592 244.747 949.429 245.368C948.277 245.989 946.922 246.299 945.364 246.299C943.795 246.299 942.428 245.989 941.265 245.368C940.114 244.747 939.194 243.866 938.505 242.726C937.827 241.586 937.325 240.282 936.998 238.814C936.681 237.346 936.523 235.692 936.523 233.852ZM939.64 233.852C939.64 234.755 939.673 235.585 939.741 236.341C939.809 237.086 939.916 237.837 940.063 238.594C940.221 239.339 940.441 239.994 940.724 240.558C941.017 241.123 941.367 241.631 941.774 242.082C942.191 242.534 942.699 242.878 943.298 243.116C943.907 243.341 944.596 243.454 945.364 243.454C946.132 243.454 946.815 243.341 947.413 243.116C948.023 242.878 948.531 242.534 948.937 242.082C949.355 241.631 949.705 241.123 949.988 240.558C950.281 239.994 950.501 239.339 950.648 238.594C950.806 237.837 950.919 237.086 950.987 236.341C951.054 235.585 951.088 234.755 951.088 233.852C951.088 232.948 951.054 232.124 950.987 231.379C950.919 230.622 950.806 229.872 950.648 229.126C950.501 228.37 950.281 227.709 949.988 227.145C949.705 226.58 949.355 226.072 948.937 225.621C948.531 225.169 948.023 224.83 947.413 224.604C946.815 224.367 946.132 224.249 945.364 224.249C944.438 224.249 943.631 224.424 942.942 224.774C942.253 225.124 941.7 225.587 941.282 226.163C940.876 226.727 940.543 227.438 940.283 228.297C940.035 229.155 939.865 230.024 939.775 230.905C939.685 231.774 939.64 232.756 939.64 233.852Z" fill="#CE4522"/>
<path d="M957.305 233.852C957.305 232.384 957.401 231.035 957.592 229.804C957.796 228.573 958.117 227.433 958.558 226.383C959.009 225.333 959.568 224.446 960.234 223.724C960.912 222.99 961.747 222.42 962.741 222.013C963.746 221.607 964.881 221.404 966.145 221.404C967.398 221.404 968.522 221.607 969.515 222.013C970.52 222.42 971.361 222.99 972.039 223.724C972.716 224.446 973.275 225.333 973.716 226.383C974.167 227.433 974.489 228.573 974.681 229.804C974.884 231.035 974.986 232.384 974.986 233.852C974.986 235.681 974.822 237.335 974.495 238.814C974.167 240.282 973.659 241.586 972.97 242.726C972.293 243.866 971.373 244.747 970.21 245.368C969.058 245.989 967.703 246.299 966.145 246.299C964.576 246.299 963.21 245.989 962.047 245.368C960.895 244.747 959.975 243.866 959.286 242.726C958.609 241.586 958.106 240.282 957.779 238.814C957.463 237.346 957.305 235.692 957.305 233.852ZM960.421 233.852C960.421 234.755 960.455 235.585 960.522 236.341C960.59 237.086 960.697 237.837 960.844 238.594C961.002 239.339 961.222 239.994 961.505 240.558C961.798 241.123 962.148 241.631 962.555 242.082C962.972 242.534 963.481 242.878 964.079 243.116C964.689 243.341 965.377 243.454 966.145 243.454C966.913 243.454 967.596 243.341 968.194 243.116C968.804 242.878 969.312 242.534 969.719 242.082C970.136 241.631 970.486 241.123 970.769 240.558C971.062 239.994 971.282 239.339 971.429 238.594C971.587 237.837 971.7 237.086 971.768 236.341C971.836 235.585 971.87 234.755 971.87 233.852C971.87 232.948 971.836 232.124 971.768 231.379C971.7 230.622 971.587 229.872 971.429 229.126C971.282 228.37 971.062 227.709 970.769 227.145C970.486 226.58 970.136 226.072 969.719 225.621C969.312 225.169 968.804 224.83 968.194 224.604C967.596 224.367 966.913 224.249 966.145 224.249C965.219 224.249 964.412 224.424 963.723 224.774C963.035 225.124 962.481 225.587 962.064 226.163C961.657 226.727 961.324 227.438 961.064 228.297C960.816 229.155 960.647 230.024 960.556 230.905C960.466 231.774 960.421 232.756 960.421 233.852Z" fill="#CE4522"/>
<path d="M979.017 245.995V221.708H984.945C986.638 221.708 988.117 221.996 989.382 222.572C990.647 223.148 991.668 223.978 992.447 225.062C993.238 226.134 993.819 227.405 994.192 228.872C994.576 230.34 994.768 232 994.768 233.852C994.768 235.24 994.66 236.527 994.446 237.713C994.231 238.898 993.876 240.011 993.379 241.049C992.893 242.077 992.278 242.952 991.533 243.674C990.788 244.397 989.856 244.967 988.738 245.385C987.621 245.791 986.356 245.995 984.945 245.995H979.017ZM982.032 243.251H984.64C985.724 243.251 986.678 243.087 987.502 242.76C988.338 242.421 989.009 241.975 989.517 241.422C990.037 240.857 990.455 240.163 990.771 239.339C991.098 238.515 991.324 237.662 991.448 236.781C991.572 235.901 991.634 234.924 991.634 233.852C991.634 232.79 991.572 231.819 991.448 230.939C991.324 230.058 991.098 229.211 990.771 228.398C990.455 227.574 990.037 226.885 989.517 226.332C989.009 225.767 988.338 225.321 987.502 224.994C986.678 224.655 985.724 224.486 984.64 224.486H982.032V243.251Z" fill="#CE4522"/>
<path d="M813.107 284.148V281.54H819.085V262.47H813.107V259.862H828.095V262.47H822.134V281.54H828.095V284.148H813.107Z" fill="#CE4522"/>
<path d="M833.583 284.148V259.862H836.885L846.166 278.254H846.319V259.862H849.3V284.148H845.963L836.665 265.874H836.53V284.148H833.583Z" fill="#CE4522"/>
<path d="M875.111 284.148V259.862H881.039C882.733 259.862 884.212 260.15 885.476 260.726C886.741 261.301 887.763 262.131 888.542 263.215C889.332 264.288 889.913 265.558 890.286 267.026C890.67 268.494 890.862 270.153 890.862 272.005C890.862 273.394 890.755 274.681 890.54 275.866C890.326 277.052 889.97 278.164 889.473 279.203C888.988 280.23 888.372 281.105 887.627 281.828C886.882 282.55 885.95 283.121 884.833 283.538C883.715 283.945 882.45 284.148 881.039 284.148H875.111ZM878.126 281.404H880.734C881.818 281.404 882.772 281.241 883.596 280.913C884.432 280.575 885.104 280.129 885.612 279.575C886.131 279.011 886.549 278.316 886.865 277.492C887.192 276.668 887.418 275.816 887.542 274.935C887.667 274.054 887.729 273.078 887.729 272.005C887.729 270.944 887.667 269.973 887.542 269.092C887.418 268.211 887.192 267.364 886.865 266.552C886.549 265.727 886.131 265.039 885.612 264.485C885.104 263.921 884.432 263.475 883.596 263.147C882.772 262.809 881.818 262.639 880.734 262.639H878.126V281.404Z" fill="#CE4522"/>
<path d="M896.35 284.148V259.862H911.22V262.639H899.364V270.244H910.153V273.021H899.364V281.404H911.22V284.148H896.35Z" fill="#CE4522"/>
<path d="M916.708 284.148V259.862H920.01L929.291 278.254H929.443V259.862H932.424V284.148H929.088L919.79 265.874H919.654V284.148H916.708Z" fill="#CE4522"/>
<path d="M936.269 260.217V259.862H939.436L945.33 279.745H945.466L951.258 259.862H954.442V260.217L946.888 284.148H943.806L936.269 260.217Z" fill="#CE4522"/>
<path d="M958.693 284.148V259.862H973.563V262.639H961.708V270.244H972.496V273.021H961.708V281.404H973.563V284.148H958.693Z" fill="#CE4522"/>
<path d="M978.289 284.148V259.862H986.503C988.919 259.862 990.805 260.545 992.16 261.911C993.526 263.266 994.209 265.01 994.209 267.144C994.209 268.917 993.735 270.413 992.786 271.632C991.849 272.852 990.579 273.693 988.976 274.156L995.496 283.809V284.148H992.193L985.809 274.545H981.304V284.148H978.289ZM981.304 271.768H986.334C987.858 271.768 989.026 271.373 989.839 270.582C990.652 269.781 991.059 268.652 991.059 267.195C991.059 265.761 990.647 264.643 989.822 263.842C989.009 263.04 987.846 262.639 986.334 262.639H981.304V271.768Z" fill="#CE4522"/>
<line x1="1019.93" y1="293.852" x2="1019.93" y2="172.455" stroke="#CE4522" stroke-width="4"/>
<path d="M953.576 142.436V116.075H955.159L964.661 138.244C967.144 140.79 970.218 142.902 973.882 144.578C977.608 146.193 981.148 147 984.501 147C991.084 147 996.517 144.858 1000.8 140.573C1005.09 136.288 1007.23 131.631 1007.23 126.601C1007.23 121.26 1005.55 117.1 1002.2 114.119C998.846 111.076 992.636 108.064 983.57 105.084C965.25 98.998 956.091 90.0247 956.091 78.1639C956.091 69.7806 959.258 63.2292 965.592 58.5097C971.988 53.7902 980.403 51.4304 990.835 51.4304C999.591 51.4304 1008.35 52.9518 1017.1 55.9947V82.3556H1015.61L1006.3 61.211C1001.89 56.6157 996.207 54.318 989.252 54.318C983.973 54.318 979.502 55.9326 975.838 59.1617C972.237 62.3287 970.436 66.5514 970.436 71.8298C970.436 76.7356 972.361 80.772 976.211 83.9391C980.061 87.1061 986.457 90.1489 995.399 93.0676C1012.85 98.7186 1021.76 107.661 1022.13 119.894C1022.13 120.267 1022.13 120.639 1022.13 121.012C1022.13 129.52 1018.84 136.412 1012.26 141.691C1005.3 147.156 995.679 149.888 983.383 149.888C978.229 149.888 972.889 149.143 967.362 147.652C961.897 146.162 957.302 144.423 953.576 142.436Z" fill="#1F1915"/>
<path d="M888.186 60V57.3919L901.32 54.8769V29.9132L914.547 27.2119V55.0632H932.804V59.8137H914.733V133.494C914.733 137.282 915.665 140.2 917.528 142.25C919.391 144.299 921.75 145.324 924.607 145.324C928.209 145.324 931.655 144.113 934.946 141.691L936.437 143.74C931.841 147.839 926.377 149.888 920.043 149.888C913.584 149.888 908.71 147.745 905.418 143.461C902.189 139.114 900.575 133.308 900.575 126.042V60H888.186Z" fill="#1F1915"/>
<path d="M783.301 146.441V144.951L792.709 140.294V60.9315L783.674 56.181V54.8769L806.216 54.1317L806.775 68.5696C809.134 63.4155 812.705 59.2859 817.487 56.181C822.268 53.0139 827.919 51.4304 834.44 51.4304C844.313 51.4304 852.138 54.2559 857.913 59.9069C863.75 65.4958 866.669 72.8545 866.669 81.983V140.294L875.89 145.324V146.441H843.195V144.951L852.603 140.294V82.5419C852.603 74.3448 850.585 67.8245 846.549 62.9808C842.512 58.075 836.893 55.6221 829.689 55.6221C824.535 55.6221 819.877 57.454 815.717 61.1178C811.556 64.7195 808.576 69.2527 806.775 74.7174V140.294L815.996 145.324V146.441H783.301Z" fill="#1F1915"/>
<path d="M683.447 122.968C683.447 117.379 685.123 112.411 688.477 108.064C691.892 103.718 696.425 100.271 702.076 97.725C707.789 95.1168 714.123 93.1607 721.078 91.8567C728.034 90.4905 735.33 89.8074 742.968 89.8074C742.968 79.5611 740.391 71.5193 735.237 65.6821C730.145 59.8448 723.438 56.9261 715.117 56.9261C704.125 56.9261 695.432 62.1424 689.036 72.575L686.893 70.8983C693.972 57.9197 704.964 51.4304 719.867 51.4304C731.48 51.4304 740.577 54.9079 747.16 61.863C753.804 68.7559 757.127 78.3191 757.127 90.5526V140.294L766.255 145.324V146.441H744.552L742.968 128.93C741.105 134.705 737.721 139.642 732.815 143.74C727.909 147.839 721.762 149.888 714.372 149.888C704.622 149.888 697.015 147.528 691.551 142.809C686.148 138.027 683.447 131.414 683.447 122.968ZM698.723 122.409C698.723 129.737 700.555 135.419 704.219 139.455C707.882 143.492 712.664 145.51 718.563 145.51C724.587 145.51 730.145 142.778 735.237 137.313C740.391 131.786 742.968 125.794 742.968 119.335V92.043C713.471 94.5269 698.723 104.649 698.723 122.409Z" fill="#1F1915"/>
<path d="M607.997 146.441V144.951L617.405 140.294V61.211L608.649 56.3673V55.0632L631.284 54.1317V79.8406C632.65 75.1211 634.606 70.681 637.152 66.5204C639.76 62.3598 643.051 58.8202 647.026 55.9015C651.062 52.9208 655.285 51.4304 659.694 51.4304C664.103 51.4304 667.549 52.3929 670.033 54.318L666.028 68.0108C661.743 64.7195 657.365 63.0739 652.894 63.0739C643.269 63.0739 636.065 70.9604 631.284 86.7335V140.294L642.927 145.324V146.441H607.997Z" fill="#1F1915"/>
<path d="M496.219 56.3673V55.0632L519.134 54.1317V118.776C519.134 126.29 521.276 132.656 525.561 137.872C529.846 143.088 535.465 145.696 542.421 145.696C547.637 145.696 552.387 144.485 556.672 142.063C561.019 139.642 564.403 136.537 566.825 132.749V61.211L558.069 56.3673V55.0632L580.984 54.1317V141.318L589.926 144.578V145.883L566.825 146.628V136.568C564.341 140.48 560.584 143.678 555.554 146.162C550.524 148.646 544.873 149.888 538.601 149.888C528.169 149.888 519.972 147.093 514.01 141.505C508.049 135.854 505.068 128.464 505.068 119.335V61.211L496.219 56.3673Z" fill="#1F1915"/>
<path d="M396.364 122.968C396.364 117.379 398.041 112.411 401.394 108.064C404.81 103.718 409.343 100.271 414.994 97.725C420.707 95.1168 427.041 93.1607 433.996 91.8567C440.951 90.4905 448.248 89.8074 455.886 89.8074C455.886 79.5611 453.309 71.5193 448.155 65.6821C443.063 59.8448 436.356 56.9261 428.035 56.9261C417.043 56.9261 408.349 62.1424 401.953 72.575L399.811 70.8983C406.89 57.9197 417.882 51.4304 432.785 51.4304C444.398 51.4304 453.495 54.9079 460.078 61.863C466.722 68.7559 470.044 78.3191 470.044 90.5526V140.294L479.173 145.324V146.441H457.47L455.886 128.93C454.023 134.705 450.639 139.642 445.733 143.74C440.827 147.839 434.679 149.888 427.29 149.888C417.54 149.888 409.933 147.528 404.468 142.809C399.066 138.027 396.364 131.414 396.364 122.968ZM411.641 122.409C411.641 129.737 413.473 135.419 417.136 139.455C420.8 143.492 425.582 145.51 431.481 145.51C437.505 145.51 443.063 142.778 448.155 137.313C453.309 131.786 455.886 125.794 455.886 119.335V92.043C426.389 94.5269 411.641 104.649 411.641 122.409Z" fill="#1F1915"/>
<path d="M331.906 60V57.3919L345.04 54.8769V29.9132L358.267 27.2119V55.0632H376.524V59.8137H358.453V133.494C358.453 137.282 359.385 140.2 361.248 142.25C363.111 144.299 365.47 145.324 368.327 145.324C371.929 145.324 375.375 144.113 378.666 141.691L380.157 143.74C375.561 147.839 370.097 149.888 363.763 149.888C357.304 149.888 352.43 147.745 349.138 143.461C345.909 139.114 344.295 133.308 344.295 126.042V60H331.906Z" fill="#1F1915"/>
<path d="M246.21 142.436V116.075H247.793L257.294 138.244C259.778 140.79 262.852 142.902 266.516 144.578C270.242 146.193 273.782 147 277.135 147C283.717 147 289.151 144.858 293.436 140.573C297.721 136.288 299.863 131.631 299.863 126.601C299.863 121.26 298.186 117.1 294.833 114.119C291.48 111.076 285.27 108.064 276.203 105.084C257.884 98.998 248.725 90.0247 248.725 78.1639C248.725 69.7806 251.892 63.2292 258.226 58.5097C264.622 53.7902 273.036 51.4304 283.469 51.4304C292.225 51.4304 300.981 52.9518 309.737 55.9947V82.3556H308.246L298.932 61.211C294.523 56.6157 288.841 54.318 281.885 54.318C276.607 54.318 272.136 55.9326 268.472 59.1617C264.87 62.3287 263.07 66.5514 263.07 71.8298C263.07 76.7356 264.995 80.772 268.845 83.9391C272.695 87.1061 279.091 90.1489 288.033 93.0676C305.483 98.7186 314.394 107.661 314.767 119.894C314.767 120.267 314.767 120.639 314.767 121.012C314.767 129.52 311.475 136.412 304.893 141.691C297.938 147.156 288.313 149.888 276.017 149.888C270.863 149.888 265.522 149.143 259.996 147.652C254.531 146.162 249.936 144.423 246.21 142.436Z" fill="#1F1915"/>
<path d="M143.374 98.5633C143.374 91.9188 144.585 85.6778 147.007 79.8406C149.491 73.9412 152.782 68.9422 156.881 64.8437C161.041 60.6831 165.916 57.4229 171.505 55.0632C177.156 52.6413 183.086 51.4304 189.296 51.4304C198.425 51.4304 206.094 53.4797 212.304 57.5782C218.514 61.5525 222.923 66.893 225.531 73.5996C227.829 79.4369 229.008 86.0504 229.071 93.4402C229.071 94.4958 229.039 95.5515 228.977 96.6072L159.582 96.8867C159.582 111.169 162.873 122.813 169.456 131.817C176.038 140.821 184.515 145.324 194.885 145.324C206.622 145.324 216.806 141.132 225.438 132.749L227.114 134.612C224.63 136.909 222.395 138.803 220.408 140.294C218.483 141.784 216.03 143.368 213.049 145.044C210.13 146.659 206.839 147.87 203.175 148.677C199.574 149.484 195.599 149.888 191.252 149.888C184.546 149.888 178.274 148.708 172.437 146.348C166.661 143.989 161.6 140.666 157.253 136.381C152.969 132.035 149.584 126.632 147.1 120.174C144.616 113.653 143.374 106.45 143.374 98.5633ZM159.582 93.8128H213.422C213.297 88.4102 212.708 83.4112 211.652 78.8159C210.658 74.2206 209.168 70.0911 207.181 66.4272C205.256 62.7013 202.648 59.7827 199.356 57.6713C196.127 55.56 192.401 54.5043 188.179 54.5043C182.9 54.5043 178.088 56.3673 173.741 60.0932C169.394 63.8191 166.009 68.6628 163.587 74.6243C161.166 80.5857 159.831 86.9819 159.582 93.8128Z" fill="#1F1915"/>
<path d="M23.8654 146.441V144.951L34.2049 140.294V19.0149L23.8654 14.4506V12.8671H76.5872C84.4737 12.8671 91.6772 14.4196 98.1976 17.5245C104.718 20.6295 109.903 25.0695 113.753 30.8447C117.665 36.6199 119.622 43.1092 119.622 50.3126C119.622 61.5525 115.834 70.5258 108.258 77.2324C100.744 83.9391 90.4352 87.2924 77.3324 87.2924C82.3624 88.6586 86.7714 90.9873 90.5594 94.2785C94.4095 97.5076 98.0113 101.73 101.365 106.947L119.249 134.984C121.298 138.275 123.503 140.666 125.863 142.157C128.222 143.585 131.576 144.516 135.923 144.951V146.441H107.606L80.5926 103.314C73.948 93.0055 64.6022 87.8513 52.555 87.8513H49.6674V140.294L59.5411 144.951V146.441H23.8654ZM49.6674 84.0322H72.3956C81.7104 84.0322 89.1311 80.772 94.6579 74.2517C100.247 67.7313 103.041 59.7516 103.041 50.3126C103.041 40.9357 100.247 32.9871 94.6579 26.4667C89.1311 19.9464 81.7104 16.6862 72.3956 16.6862H49.6674V84.0322Z" fill="#1F1915"/>
<path d="M952.709 115.208H955.73L955.957 115.733L965.387 137.743C967.769 140.156 970.717 142.175 974.245 143.789C977.878 145.361 981.294 146.133 984.501 146.133V147C981.148 147 977.608 146.193 973.882 144.578C970.218 142.902 967.144 140.79 964.661 138.244L955.159 116.075H953.576V142.436C957.302 144.423 961.897 146.162 967.362 147.652C972.198 148.956 976.892 149.689 981.442 149.852L983.383 149.888C994.91 149.888 1004.09 147.488 1010.92 142.685L1012.26 141.691C1018.43 136.742 1021.71 130.375 1022.1 122.589L1022.13 121.012V119.894C1021.77 108.043 1013.4 99.2815 997.01 93.6078L995.399 93.0676C987.015 90.331 980.869 87.4851 976.961 84.5301L976.211 83.9391C972.601 80.9699 970.683 77.2367 970.458 72.7393L970.436 71.8298C970.436 66.8813 972.017 62.8591 975.183 59.7663L975.838 59.1617C979.502 55.9326 983.973 54.318 989.252 54.318L990.54 54.3434C996.912 54.6126 1002.16 56.9028 1006.3 61.211L1015.61 82.3556H1017.1V55.9947C1008.35 52.9518 999.591 51.4304 990.835 51.4304C980.403 51.4304 971.988 53.7902 965.592 58.5097C959.258 63.2292 956.091 69.7806 956.091 78.1639L956.116 79.2664C956.67 90.5823 965.822 99.188 983.57 105.084C992.636 108.064 998.846 111.076 1002.2 114.119C1005.55 117.1 1007.23 121.26 1007.23 126.601L1007.21 127.541C1006.95 132.212 1004.82 136.556 1000.8 140.573L999.984 141.35C995.832 145.116 990.672 147 984.501 147V146.133C990.875 146.133 996.08 144.066 1000.19 139.958C1004.34 135.801 1006.36 131.356 1006.36 126.603C1006.36 121.78 1004.95 118.045 1002.19 115.303L1001.62 114.768L1001.62 114.761C998.408 111.849 992.349 108.882 983.299 105.907C964.883 99.789 955.226 90.6124 955.225 78.1656C955.225 69.528 958.507 62.7098 965.076 57.8153L965.079 57.8119C971.665 52.953 980.276 50.5633 990.835 50.5633C999.14 50.5633 1007.44 51.9164 1015.73 54.6178L1017.39 55.1767L1017.97 55.3765V83.2227H1015.05L1014.82 82.7044L1005.57 61.7106C1001.35 57.3714 995.943 55.1872 989.253 55.1868C984.168 55.1868 979.905 56.7359 976.412 59.8137C973.018 62.7984 971.305 66.7743 971.305 71.8315L971.325 72.6919C971.523 76.6599 973.103 79.982 976.097 82.6977L976.761 83.2701C980.483 86.3318 986.755 89.3334 995.669 92.2428C1012.71 97.7618 1022.02 106.522 1022.94 118.68L1023 119.869V121.014L1022.96 122.636C1022.56 130.666 1019.17 137.262 1012.8 142.367L1012.79 142.373C1005.64 147.997 995.798 150.757 983.383 150.757C978.8 150.757 974.08 150.174 969.225 149.019L967.135 148.491C962.316 147.176 958.145 145.663 954.633 143.948L953.169 143.2L952.709 142.956V115.208Z" fill="#1F1915"/>
<path d="M899.709 60.8672H887.319V56.6738L888.023 56.5417L900.454 54.1571V29.2036L901.145 29.0647L915.416 26.1483V54.1978H933.673V60.6809H915.602V133.496L915.643 134.817C915.823 137.59 916.585 139.733 917.865 141.313L918.169 141.665C919.862 143.528 921.988 144.457 924.609 144.457L924.607 145.324L923.559 145.276C921.51 145.084 919.741 144.314 918.251 142.97L917.528 142.25C915.898 140.457 914.979 137.998 914.776 134.874L914.733 133.494V59.8137H932.804V55.0632H914.547V27.2119L901.32 29.9132V54.8769L888.186 57.3919V60H900.575V126.042L900.593 127.388C900.783 134.028 902.391 139.386 905.418 143.461C908.504 147.477 912.982 149.611 918.85 149.862L920.043 149.888C926.377 149.888 931.841 147.839 936.437 143.74L934.946 141.691C931.655 144.113 928.209 145.324 924.607 145.324L924.609 144.457C928 144.456 931.269 143.319 934.431 140.991L935.136 140.477L937.599 143.864L937.013 144.389C932.254 148.632 926.582 150.757 920.043 150.757C913.79 150.757 908.868 148.799 905.403 144.812L904.729 143.989L904.722 143.979C901.35 139.439 899.71 133.432 899.709 126.044V60.8672Z" fill="#1F1915"/>
<path d="M842.33 144.412L842.811 144.175L851.736 139.755V82.5419C851.736 74.9899 849.995 68.9774 846.588 64.4271L845.883 63.5363L845.88 63.5329C842.031 58.8556 836.672 56.4909 829.689 56.4909C824.763 56.4909 820.305 58.2323 816.289 61.7682L816.286 61.7749C812.282 65.2409 809.4 69.5948 807.642 74.8597V139.775L816.865 144.809V147.309H782.434V144.412L782.915 144.175L791.844 139.755V61.4565L782.807 56.7043V54.0386L806.189 53.2663L807.049 53.2358L807.513 65.2841C809.863 61.3188 813.031 58.0413 817.007 55.4578C821.95 52.1843 827.775 50.5633 834.441 50.5633C844.485 50.5636 852.543 53.4424 858.514 59.2819C864.544 65.0561 867.538 72.6524 867.538 81.983V139.779L876.307 144.562L876.758 144.809V147.309H842.33V144.412ZM783.674 56.181L792.709 60.9315V140.294L783.301 144.951V146.441H815.996V145.324L806.775 140.294V74.7174C808.576 69.2527 811.556 64.7195 815.717 61.1178C819.877 57.454 824.535 55.6221 829.689 55.6221L831.02 55.6509C837.588 55.9381 842.765 58.3814 846.549 62.9808C850.585 67.8245 852.603 74.3448 852.603 82.5419V140.294L843.195 144.951V146.441H875.89V145.324L866.669 140.294V81.983C866.669 73.4254 864.105 66.4224 858.975 60.9755L857.913 59.9069C852.499 54.6091 845.283 51.7954 836.267 51.4643L834.44 51.4304C827.919 51.4304 822.268 53.0139 817.487 56.181L816.604 56.7754C812.263 59.8064 808.987 63.7376 806.775 68.5696L806.216 54.1317L783.674 54.8769V56.181Z" fill="#1F1915"/>
<path d="M757.127 90.5526C757.127 78.3191 753.804 68.7559 747.16 61.863C740.989 55.3429 732.608 51.8788 722.017 51.4711L719.867 51.4304C704.964 51.4304 693.972 57.9197 686.893 70.8983L689.036 72.575C695.432 62.1424 704.125 56.9261 715.117 56.9261L716.658 56.9617C724.27 57.3037 730.463 60.2096 735.237 65.6821C740.391 71.5193 742.968 79.5611 742.968 89.8074C735.33 89.8074 728.034 90.4905 721.078 91.8567C714.123 93.1607 707.789 95.1168 702.076 97.725L701.03 98.2144C695.863 100.707 691.678 103.989 688.477 108.064C685.123 112.411 683.447 117.379 683.447 122.968C683.447 131.414 686.148 138.027 691.551 142.809C696.674 147.232 703.681 149.583 712.57 149.859L714.372 149.888C721.3 149.888 727.135 148.086 731.88 144.484L732.815 143.74C737.721 139.642 741.105 134.705 742.968 128.93L744.552 146.441H766.255V145.324L757.127 140.294V90.5526ZM742.103 92.9914C727.891 94.281 717.313 97.3798 710.273 102.211C703.133 107.112 699.59 113.818 699.59 122.409C699.59 129.596 701.386 135.042 704.861 138.871C708.345 142.71 712.888 144.643 718.565 144.643L718.563 145.51L717.471 145.486C712.431 145.266 708.246 143.5 704.918 140.189L704.219 139.455C700.555 135.419 698.723 129.737 698.723 122.409C698.723 104.649 713.471 94.5269 742.968 92.043V119.335L742.939 120.539C742.638 126.54 740.069 132.131 735.237 137.313C730.145 142.778 724.587 145.51 718.563 145.51L718.565 144.643C724.292 144.642 729.634 142.054 734.604 136.72C739.634 131.326 742.102 125.538 742.103 119.337V92.9914ZM757.996 139.782L766.674 144.565L767.124 144.812V147.309H743.759L742.438 132.683C740.405 137.144 737.381 141.055 733.371 144.406C728.285 148.654 721.931 150.757 714.372 150.757C704.488 150.757 696.653 148.361 690.983 143.464L690.976 143.457C685.356 138.483 682.58 131.615 682.58 122.968C682.58 117.192 684.317 112.037 687.789 107.536L687.796 107.529C691.308 103.06 695.958 99.5305 701.721 96.9341C707.504 94.2943 713.905 92.3182 720.919 91.0031C727.662 89.6791 734.718 89.0011 742.086 88.9504C741.955 79.8843 739.737 72.7067 735.491 67.3367L734.587 66.2562L734.583 66.2528C729.669 60.6196 723.209 57.795 715.117 57.795C704.466 57.795 696.034 62.8172 689.774 73.0272L689.266 73.8571L685.78 71.127L686.133 70.4834C689.735 63.8788 694.356 58.8853 700.007 55.5492C705.657 52.214 712.289 50.5633 719.869 50.5633C731.661 50.5636 741.004 54.101 747.783 61.2601C754.623 68.3561 757.996 78.1597 757.996 90.5526V139.782Z" fill="#1F1915"/>
<path d="M607.13 144.412L607.611 144.175L616.539 139.755V61.7207L608.23 57.1277L607.783 56.877V54.2316L632.151 53.229V74.626C633.322 71.6554 634.739 68.8 636.412 66.0665L636.419 66.0597C639.085 61.8073 642.448 58.1863 646.509 55.2038C650.673 52.1287 655.076 50.5633 659.696 50.5633C663.938 50.5635 667.418 51.4317 670.05 53.2561L670.565 53.6321L671.033 53.9945L666.504 69.4706L665.501 68.6984C661.335 65.4985 657.137 63.9427 652.894 63.9427C643.913 63.9427 636.911 71.2422 632.151 86.8639V139.721L643.796 144.755V147.309H607.13V144.412ZM608.649 56.3673L617.405 61.211V140.294L607.997 144.951V146.441H642.927V145.324L631.284 140.294V86.7335C636.065 70.9604 643.269 63.0739 652.894 63.0739L653.731 63.0925C657.912 63.2853 662.011 64.9251 666.028 68.0108L670.033 54.318C667.86 52.6334 664.949 51.6849 661.301 51.4744L659.694 51.4304C655.285 51.4304 651.062 52.9208 647.026 55.9015L645.568 57.0261C642.24 59.7155 639.434 62.8803 637.152 66.5204C634.606 70.681 632.65 75.1211 631.284 79.8406V54.1317L608.649 55.0632V56.3673Z" fill="#1F1915"/>
<path d="M557.202 54.2316L581.851 53.229V140.71L590.224 143.762L590.793 143.972V146.723L566.852 147.495L565.958 147.522V139.247C563.462 142.316 560.114 144.878 555.939 146.939C550.776 149.489 544.992 150.756 538.603 150.757C528.014 150.757 519.579 147.914 513.416 142.136L513.413 142.133C507.259 136.3 504.203 128.673 504.203 119.337V61.7241L495.802 57.1277L495.352 56.8804V54.2316L520.001 53.229V118.778L520.024 120.14C520.253 126.431 522.078 131.826 525.478 136.361L526.23 137.323C530.344 142.332 535.716 144.829 542.421 144.829V145.696C535.9 145.696 530.552 143.405 526.379 138.82L525.561 137.872C521.543 132.981 519.408 127.081 519.157 120.17L519.134 118.776V54.1317L496.219 55.0632V56.3673L505.068 61.211V119.335L505.104 121.027C505.453 129.381 508.422 136.207 514.01 141.505C519.599 146.743 527.154 149.528 536.672 149.856L538.601 149.888C544.481 149.888 549.816 148.797 554.604 146.614L555.554 146.162C560.584 143.678 564.341 140.48 566.825 136.568V146.628L589.926 145.883V144.578L580.984 141.318V54.1317L558.069 55.0632V56.3673L566.825 61.211V132.749C564.403 136.537 561.019 139.642 556.672 142.063C552.387 144.485 547.637 145.696 542.421 145.696V144.829C547.497 144.829 552.1 143.654 556.247 141.31L556.25 141.306C560.406 138.991 563.631 136.048 565.958 132.486V61.7207L557.649 57.1277L557.202 56.877V54.2316Z" fill="#1F1915"/>
<path d="M470.044 90.5526C470.044 78.3191 466.722 68.7559 460.078 61.863C453.907 55.3429 445.526 51.8788 434.934 51.4711L432.785 51.4304C417.882 51.4304 406.89 57.9197 399.811 70.8983L401.953 72.575C408.349 62.1424 417.043 56.9261 428.035 56.9261L429.576 56.9617C437.188 57.3037 443.381 60.2096 448.155 65.6821C453.309 71.5193 455.886 79.5611 455.886 89.8074C448.248 89.8074 440.951 90.4905 433.996 91.8567C427.041 93.1607 420.707 95.1168 414.994 97.725L413.947 98.2144C408.781 100.707 404.596 103.989 401.394 108.064C398.041 112.411 396.364 117.379 396.364 122.968C396.364 131.414 399.066 138.027 404.468 142.809C409.591 147.232 416.599 149.583 425.488 149.859L427.29 149.888C434.218 149.888 440.053 148.086 444.798 144.484L445.733 143.74C450.639 139.642 454.023 134.705 455.886 128.93L457.47 146.441H479.173V145.324L470.044 140.294V90.5526ZM455.021 92.9914C440.809 94.281 430.231 97.3798 423.191 102.211C416.051 107.112 412.508 113.818 412.508 122.409C412.508 129.596 414.304 135.042 417.778 138.871C421.263 142.71 425.806 144.643 431.483 144.643L431.481 145.51L430.389 145.486C425.349 145.266 421.164 143.5 417.836 140.189L417.136 139.455C413.473 135.419 411.641 129.737 411.641 122.409C411.641 104.649 426.389 94.5269 455.886 92.043V119.335L455.857 120.539C455.556 126.54 452.987 132.131 448.155 137.313C443.063 142.778 437.505 145.51 431.481 145.51L431.483 144.643C437.21 144.642 442.552 142.054 447.521 136.72C452.552 131.326 455.02 125.538 455.021 119.337V92.9914ZM470.913 139.782L479.591 144.565L480.042 144.812V147.309H456.677L455.356 132.683C453.323 137.144 450.299 141.055 446.288 144.406C441.203 148.654 434.849 150.757 427.29 150.757C417.405 150.757 409.571 148.361 403.901 143.464L403.894 143.457C398.273 138.483 395.497 131.615 395.497 122.968C395.497 117.192 397.235 112.037 400.707 107.536L400.714 107.529C404.225 103.06 408.876 99.5305 414.638 96.9341C420.422 94.2943 426.823 92.3182 433.837 91.0031C440.58 89.6791 447.636 89.0011 455.004 88.9504C454.872 79.8843 452.655 72.7067 448.409 67.3367L447.504 66.2562L447.501 66.2528C442.587 60.6196 436.126 57.795 428.035 57.795C417.384 57.795 408.952 62.8172 402.692 73.0272L402.184 73.8571L398.698 71.127L399.05 70.4834C402.653 63.8788 407.274 58.8853 412.924 55.5492C418.574 52.214 425.207 50.5633 432.787 50.5633C444.579 50.5636 453.921 54.101 460.701 61.2601C467.541 68.3561 470.913 78.1597 470.913 90.5526V139.782Z" fill="#1F1915"/>
<path d="M343.429 60.8672H331.039V56.6738L331.743 56.5417L344.174 54.1571V29.2036L344.865 29.0647L359.136 26.1483V54.1978H377.393V60.6809H359.322V133.496L359.363 134.817C359.543 137.59 360.305 139.733 361.585 141.313L361.889 141.665C363.582 143.528 365.708 144.457 368.329 144.457L368.327 145.324L367.279 145.276C365.23 145.084 363.461 144.314 361.971 142.97L361.248 142.25C359.618 140.457 358.699 137.998 358.495 134.874L358.453 133.494V59.8137H376.524V55.0632H358.267V27.2119L345.04 29.9132V54.8769L331.906 57.3919V60H344.295V126.042L344.313 127.388C344.503 134.028 346.111 139.386 349.138 143.461C352.224 147.477 356.702 149.611 362.57 149.862L363.763 149.888C370.097 149.888 375.561 147.839 380.157 143.74L378.666 141.691C375.375 144.113 371.929 145.324 368.327 145.324L368.329 144.457C371.72 144.456 374.989 143.319 378.151 140.991L378.856 140.477L381.318 143.864L380.732 144.389C375.974 148.632 370.302 150.757 363.763 150.757C357.51 150.757 352.588 148.799 349.123 144.812L348.449 143.989L348.442 143.979C345.07 139.439 343.429 133.432 343.429 126.044V60.8672Z" fill="#1F1915"/>
<path d="M245.343 115.208H248.364L248.591 115.733L258.021 137.743C260.403 140.156 263.351 142.175 266.878 143.789C270.512 145.361 273.928 146.133 277.135 146.133V147C273.782 147 270.242 146.193 266.516 144.578C262.852 142.902 259.778 140.79 257.294 138.244L247.793 116.075H246.21V142.436C249.936 144.423 254.531 146.162 259.996 147.652C264.832 148.956 269.526 149.689 274.076 149.852L276.017 149.888C287.544 149.888 296.725 147.488 303.558 142.685L304.893 141.691C311.064 136.742 314.344 130.375 314.729 122.589L314.767 121.012V119.894C314.406 108.043 306.031 99.2815 289.644 93.6078L288.033 93.0676C279.649 90.331 273.503 87.4851 269.595 84.5301L268.845 83.9391C265.235 80.9699 263.317 77.2367 263.092 72.7393L263.07 71.8298C263.07 66.8813 264.651 62.8591 267.817 59.7663L268.472 59.1617C272.136 55.9326 276.607 54.318 281.885 54.318L283.174 54.3434C289.546 54.6126 294.798 56.9028 298.932 61.211L308.246 82.3556H309.737V55.9947C300.981 52.9518 292.225 51.4304 283.469 51.4304C273.036 51.4304 264.622 53.7902 258.226 58.5097C251.892 63.2292 248.725 69.7806 248.725 78.1639L248.75 79.2664C249.304 90.5823 258.456 99.188 276.203 105.084C285.27 108.064 291.48 111.076 294.833 114.119C298.186 117.1 299.863 121.26 299.863 126.601L299.839 127.541C299.588 132.212 297.453 136.556 293.436 140.573L292.618 141.35C288.466 145.116 283.306 147 277.135 147V146.133C283.509 146.133 288.714 144.066 292.821 139.958C296.978 135.801 298.995 131.356 298.996 126.603C298.996 121.78 297.584 118.045 294.826 115.303L294.257 114.768L294.25 114.761C291.042 111.849 284.983 108.882 275.932 105.907C257.517 99.789 247.86 90.6124 247.859 78.1656C247.859 69.528 251.14 62.7098 257.709 57.8153L257.713 57.8119C264.298 52.953 272.909 50.5633 283.469 50.5633C291.774 50.5633 300.074 51.9164 308.365 54.6178L310.021 55.1767L310.604 55.3765V83.2227H307.681L307.454 82.7044L298.203 61.7106C293.988 57.3714 288.576 55.1872 281.887 55.1868C276.801 55.1868 272.538 56.7359 269.046 59.8137C265.652 62.7984 263.938 66.7743 263.938 71.8315L263.959 72.6919C264.157 76.6599 265.737 79.982 268.731 82.6977L269.395 83.2701C273.117 86.3318 279.388 89.3334 288.303 92.2428C305.345 97.7618 314.65 106.522 315.569 118.68L315.634 119.869V121.014L315.593 122.636C315.194 130.666 311.8 137.262 305.435 142.367L305.428 142.373C298.271 147.997 288.432 150.757 276.017 150.757C271.434 150.757 266.714 150.174 261.859 149.019L259.769 148.491C254.95 147.176 250.779 145.663 247.267 143.948L245.803 143.2L245.343 142.956V115.208Z" fill="#1F1915"/>
<path d="M229.071 93.4402C229.008 86.0504 227.829 79.4369 225.531 73.5996C222.923 66.893 218.514 61.5525 212.304 57.5782C206.482 53.7359 199.378 51.6944 190.992 51.4541L189.296 51.4304C183.086 51.4304 177.156 52.6413 171.505 55.0632L170.465 55.5154C165.31 57.833 160.781 60.9435 156.881 64.8437L156.12 65.6228C152.373 69.5705 149.336 74.3102 147.007 79.8406C144.585 85.6778 143.374 91.9188 143.374 98.5633C143.374 106.45 144.616 113.653 147.1 120.174C149.584 126.632 152.969 132.035 157.253 136.381C161.6 140.666 166.661 143.989 172.437 146.348C177.909 148.56 183.763 149.734 189.999 149.873L191.252 149.888C195.599 149.888 199.574 149.484 203.175 148.677C206.381 147.971 209.303 146.956 211.938 145.632L213.049 145.044C216.03 143.368 218.483 141.784 220.408 140.294C222.395 138.803 224.63 136.909 227.114 134.612L225.438 132.749C216.806 141.132 206.622 145.324 194.885 145.324L194.887 144.457C206.391 144.456 216.359 140.357 224.833 132.127L225.48 131.5L226.083 132.168L228.332 134.667L227.702 135.247C225.204 137.558 222.945 139.475 220.928 140.988L220.924 140.985C218.957 142.506 216.474 144.115 213.476 145.801L213.469 145.805C210.469 147.464 207.097 148.697 203.362 149.52C199.689 150.343 195.651 150.757 191.252 150.757C184.868 150.757 178.859 149.702 173.233 147.59L172.111 147.153L172.108 147.149C166.598 144.898 161.72 141.785 157.482 137.807L156.645 136.998L156.635 136.991C152.53 132.826 149.247 127.724 146.775 121.701L146.291 120.485C143.765 113.854 142.507 106.542 142.507 98.5633C142.507 91.8107 143.738 85.4549 146.206 79.5069L146.209 79.5035C148.732 73.5124 152.081 68.416 156.266 64.2306C160.507 59.9896 165.476 56.6672 171.163 54.2655C176.923 51.7969 182.972 50.5633 189.298 50.5633C198.552 50.5635 206.393 52.6402 212.771 56.8465C219.132 60.9173 223.664 66.4023 226.34 73.2846C228.536 78.8641 229.722 85.119 229.914 92.0396L229.938 93.4317V93.4419L229.914 95.0508C229.898 95.5866 229.874 96.1239 229.843 96.6597L229.795 97.4726H228.982L160.459 97.747C160.581 110.624 163.438 121.231 168.985 129.621L170.157 131.304C176.591 140.105 184.817 144.457 194.887 144.457L194.885 145.324L193.918 145.31C184.627 145.055 176.892 141.102 170.712 133.451L169.456 131.817C162.873 122.813 159.582 111.169 159.582 96.8867L228.977 96.6072C229.008 96.0794 229.031 95.5515 229.047 95.0237L229.071 93.4402ZM189.738 54.5534C193.325 54.7843 196.531 55.8238 199.356 57.6713C202.648 59.7827 205.256 62.7013 207.181 66.4272C209.168 70.0911 210.658 74.2206 211.652 78.8159C212.708 83.4112 213.297 88.4102 213.422 93.8128H159.582C159.815 87.4089 161.002 81.3869 163.145 75.7471L163.587 74.6243C165.858 69.0354 168.975 64.4302 172.938 60.8062L173.741 60.0932C178.088 56.3673 182.9 54.5043 188.179 54.5043L189.738 54.5534ZM188.18 55.3731C183.127 55.3731 178.51 57.1488 174.306 60.752C170.077 64.3772 166.768 69.1017 164.392 74.9511C162.117 80.5519 160.825 86.5489 160.5 92.9473H212.524C212.381 88.5986 211.935 84.5265 211.176 80.7297L210.807 79.009L210.803 78.9988C209.947 75.04 208.72 71.4443 207.125 68.2072L206.417 66.8422L206.41 66.8252C204.782 63.6743 202.657 61.1379 200.039 59.1973L198.887 58.4013L198.88 58.3979C195.806 56.388 192.25 55.3734 188.18 55.3731Z" fill="#1F1915"/>
<path d="M23 144.392L23.5081 144.162L33.3377 139.735V19.5772L23.5149 15.2449L23 15.0146V12H76.5889L76.5872 12.8671H23.8654V14.4506L34.2049 19.0149V140.294L23.8654 144.951V146.441H59.5411V144.951L49.6674 140.294V87.8513H52.555C64.6022 87.8513 73.948 93.0055 80.5926 103.314L107.606 146.441H135.923V144.951C131.576 144.516 128.222 143.585 125.863 142.157C123.503 140.666 121.298 138.275 119.249 134.984L101.365 106.947C98.0113 101.73 94.4095 97.5076 90.5594 94.2785C86.7714 90.9873 82.3624 88.6586 77.3324 87.2924C90.4352 87.2924 100.744 83.9391 108.258 77.2324C115.36 70.9447 119.132 62.6646 119.576 52.3924L119.622 50.3126C119.622 43.5599 117.903 37.4347 114.465 31.9371L113.753 30.8447C110.144 25.4304 105.362 21.188 99.4051 18.1207L98.1976 17.5245C92.085 14.6138 85.3721 13.0661 78.059 12.8841L76.5872 12.8671L76.5889 12C84.0912 12.0002 91.0039 13.3854 97.3152 16.1663L98.5718 16.7421C105.225 19.9105 110.531 24.4507 114.471 30.3586C118.484 36.2822 120.49 42.9419 120.49 50.3126L120.443 52.433C119.989 62.9127 116.129 71.4208 108.832 77.8811C102.06 83.9239 93.1164 87.2721 82.0728 88.002C85.392 89.393 88.4058 91.2647 91.1132 93.6146C94.5522 96.499 97.7863 100.146 100.811 104.545L102.095 106.479L119.979 134.518L119.986 134.525C121.987 137.74 124.103 140.015 126.313 141.415C128.516 142.748 131.723 143.659 136.007 144.087L136.79 144.165V147.309H107.125L79.8576 103.773C73.5724 94.0295 64.8603 89.036 53.6474 88.7337L52.5567 88.7201H50.5346V139.742L59.9103 144.165L60.4082 144.402V147.309H23V144.392ZM102.176 50.3126C102.176 41.6968 99.7719 34.3533 94.9882 28.2382L93.9991 27.0324L93.9957 27.029C88.9836 21.1159 82.3699 17.9597 74.0756 17.5889L72.3956 17.555H50.5346V83.1651H72.3956V84.0322H49.6674V16.6862H72.3956C81.7104 16.6862 89.1311 19.9464 94.6579 26.4667C100.247 32.9871 103.041 40.9357 103.041 50.3126L103.009 52.0638C102.682 60.7425 99.8978 68.1385 94.6579 74.2517C89.1311 80.772 81.7104 84.0322 72.3956 84.0322V83.1651C81.4812 83.1651 88.6498 79.9979 93.9957 73.6911L93.9991 73.6877C99.4396 67.3405 102.176 59.5667 102.176 50.3126Z" fill="#1F1915"/>
<path d="M147.176 117.306C153.586 117.306 158.44 118.956 161.74 122.255L153.539 134.133H152.832C147.364 125.177 142.557 120.7 138.409 120.7C131.622 120.7 127.05 126.544 124.693 138.233L119.744 161.988L119.603 162.554H139.54L138.126 168.21H118.33L104.756 228.163C102.682 237.024 98.3931 245.225 91.8888 252.766C85.4787 260.402 78.8329 264.219 71.9515 264.219C69.4064 264.219 66.9083 263.748 64.4574 262.805C61.9122 261.957 60.1683 261.014 59.2256 259.977L65.023 251.352H65.73C68.8408 257.668 72.6114 260.826 77.0419 260.826C79.5871 260.826 81.8966 259.6 83.9704 257.149C86.1385 254.793 87.6939 251.635 88.6366 247.676L106.311 168.21H91.4646L92.8785 162.554H107.584L109.988 151.1C111.213 145.067 113.24 139.788 116.068 135.264C118.99 130.645 122.242 127.11 125.824 124.659C129.501 122.114 133.13 120.275 136.712 119.144C140.294 117.919 143.782 117.306 147.176 117.306Z" fill="#CE4522"/>
<path d="M61.1777 160.433C68.3419 160.433 73.715 162.554 77.2971 166.796C80.8792 171.038 82.6703 176.599 82.6703 183.481C82.6703 191.022 81.0678 198.375 77.8627 205.539C74.6577 212.609 70.0858 218.548 64.147 223.355C58.2083 228.068 51.6568 230.425 44.4926 230.425C37.3284 230.425 31.9553 228.304 28.3732 224.062C24.7911 219.726 23 214.164 23 207.377C23 195.5 26.6764 184.706 34.0291 174.997C41.3818 165.287 50.4314 160.433 61.1777 160.433ZM46.3308 228.445C50.5728 228.445 54.4848 226.089 58.0669 221.376C61.7433 216.568 64.5241 210.771 66.4094 203.983C68.2947 197.102 69.2374 190.268 69.2374 183.481C69.2374 177.919 68.389 173.017 66.6922 168.775C65.0897 164.533 62.6388 162.412 59.3395 162.412C55.0975 162.412 51.1384 164.816 47.462 169.624C43.8799 174.337 41.1462 180.134 39.2609 187.016C37.3755 193.803 36.4329 200.59 36.4329 207.377C36.4329 212.939 37.2341 217.841 38.8367 222.083C40.5334 226.324 43.0315 228.445 46.3308 228.445Z" fill="#CE4522"/>
</svg>
