<svg width="300" height="300" viewBox="0 0 300 300" fill="none" xmlns="http://www.w3.org/2000/svg">
<path d="M230.689 191.694V189.562L237.085 186.739V114.029L230.689 111.206V109.074H265.028C272.326 109.074 278.298 111.263 282.946 115.642C287.594 119.983 289.917 125.59 289.917 132.466C289.917 135.385 289.303 138.208 288.074 140.935C286.883 143.624 285.193 146.024 283.004 148.137C280.853 150.249 278.106 151.94 274.765 153.207C271.423 154.475 267.755 155.108 263.76 155.108C266.795 155.953 269.445 157.374 271.711 159.372C274.016 161.331 276.32 163.962 278.625 167.265L289.687 183.455C291.07 185.452 292.472 186.912 293.893 187.833C295.314 188.717 297.35 189.293 300 189.562V191.694H283.119L265.777 165.018C263.664 161.792 261.321 159.391 258.748 157.816C256.174 156.241 253.159 155.454 249.702 155.454H246.649V186.393L253.966 189.792V191.694H230.689ZM246.649 151.075H262.435C265.278 151.075 267.832 150.518 270.098 149.404C272.403 148.252 274.227 146.754 275.571 144.911C276.916 143.067 277.934 141.089 278.625 138.976C279.316 136.825 279.662 134.655 279.662 132.466C279.662 126.704 278.222 122.172 275.341 118.869C272.499 115.565 268.197 113.914 262.435 113.914H246.649V151.075Z" fill="#1F1915"/>
<path d="M160.745 111.206V109.074H214.788L216.574 128.087H214.442L206.664 113.914H177.165V147.215L204.532 146.639V152.746L177.165 151.824V186.393L185.635 189.792V191.694H160.86V189.562L167.256 186.739L167.14 114.029L160.745 111.206Z" fill="#CE4522"/>
<path d="M73.9773 151.018C73.9773 150.787 73.9773 150.576 73.9773 150.384C73.9773 150.192 73.9773 149.981 73.9773 149.75C73.9773 141.761 75.4561 134.578 78.4136 128.202C81.448 121.634 85.8267 116.468 91.5498 112.704C97.3113 108.901 103.956 107 111.484 107C119.013 107 125.639 108.901 131.362 112.704C137.123 116.468 141.521 121.634 144.555 128.202C147.513 134.617 148.992 141.799 148.992 149.75C148.992 149.942 148.992 150.153 148.992 150.384C148.992 150.576 148.992 150.787 148.992 151.018C148.992 159.045 147.513 166.247 144.555 172.623C141.521 179.191 137.123 184.377 131.362 188.179C125.639 191.943 119.013 193.825 111.484 193.825C103.956 193.825 97.3113 191.943 91.5498 188.179C85.8267 184.377 81.448 179.191 78.4136 172.623C75.4561 166.209 73.9773 159.007 73.9773 151.018ZM85.4426 138.054C84.8665 141.819 84.5784 145.928 84.5784 150.384C84.5784 154.839 84.8665 158.969 85.4426 162.771C86.0572 166.574 87.0366 170.146 88.381 173.487C89.7253 176.791 91.4154 179.595 93.4511 181.899C95.4868 184.204 98.0219 186.028 101.056 187.373C104.129 188.679 107.605 189.331 111.484 189.331C115.364 189.331 118.821 188.679 121.855 187.373C124.928 186.028 127.482 184.204 129.518 181.899C131.554 179.595 133.244 176.791 134.588 173.487C135.932 170.146 136.893 166.574 137.469 162.771C138.083 158.969 138.391 154.839 138.391 150.384C138.391 145.928 138.083 141.819 137.469 138.054C136.893 134.252 135.932 130.699 134.588 127.396C133.244 124.054 131.554 121.231 129.518 118.926C127.482 116.583 124.928 114.759 121.855 113.453C118.821 112.109 115.364 111.436 111.484 111.436C107.605 111.436 104.129 112.109 101.056 113.453C98.0219 114.759 95.4868 116.583 93.4511 118.926C91.4154 121.231 89.7253 124.054 88.381 127.396C87.0366 130.699 86.0572 134.252 85.4426 138.054Z" fill="#CE4522"/>
<path d="M0 191.694V189.562L6.39524 186.739V114.029L0 111.206V109.074H34.3384C41.6363 109.074 47.609 111.263 52.2566 115.642C56.9042 119.983 59.228 125.59 59.228 132.466C59.228 135.385 58.6134 138.208 57.3843 140.935C56.1936 143.624 54.5036 146.024 52.3142 148.137C50.1632 150.249 47.4169 151.94 44.0753 153.207C40.7336 154.475 37.0655 155.108 33.0709 155.108C36.1052 155.953 38.7555 157.374 41.0217 159.372C43.3263 161.331 45.6309 163.962 47.9355 167.265L58.9975 183.455C60.3803 185.452 61.7822 186.912 63.2034 187.833C64.6245 188.717 66.6603 189.293 69.3105 189.562V191.694H52.4294L35.0874 165.018C32.9748 161.792 30.6318 159.391 28.0584 157.816C25.4849 156.241 22.4698 155.454 19.0129 155.454H15.9593V186.393L23.2764 189.792V191.694H0ZM15.9593 151.075H31.7457C34.5881 151.075 37.1423 150.518 39.4085 149.404C41.7131 148.252 43.5375 146.754 44.8819 144.911C46.2262 143.067 47.2441 141.089 47.9355 138.976C48.6269 136.825 48.9725 134.655 48.9725 132.466C48.9725 126.704 47.5322 122.172 44.6514 118.869C41.8091 115.565 37.5072 113.914 31.7457 113.914H15.9593V151.075Z" fill="#1F1915"/>
</svg>
