<svg width="300" height="301" viewBox="0 0 300 301" fill="none" xmlns="http://www.w3.org/2000/svg">
<line x1="294" y1="300" x2="294" y2="-8.74228e-08" stroke="#CE4522" stroke-width="4"/>
<path d="M246.83 199.904V168.396H254.521C256.718 168.396 258.637 168.769 260.277 169.516C261.918 170.263 263.244 171.34 264.254 172.746C265.28 174.138 266.034 175.786 266.518 177.69C267.016 179.594 267.265 181.748 267.265 184.15C267.265 185.952 267.125 187.622 266.847 189.16C266.569 190.698 266.107 192.141 265.463 193.488C264.833 194.821 264.035 195.957 263.068 196.894C262.101 197.832 260.893 198.571 259.442 199.113C257.992 199.641 256.352 199.904 254.521 199.904H246.83ZM250.741 196.345H254.125C255.531 196.345 256.769 196.132 257.838 195.708C258.922 195.268 259.794 194.689 260.453 193.972C261.127 193.239 261.669 192.338 262.079 191.269C262.504 190.2 262.797 189.094 262.958 187.951C263.119 186.809 263.2 185.542 263.2 184.15C263.2 182.773 263.119 181.513 262.958 180.371C262.797 179.228 262.504 178.129 262.079 177.075C261.669 176.005 261.127 175.112 260.453 174.394C259.794 173.662 258.922 173.083 257.838 172.658C256.769 172.219 255.531 171.999 254.125 171.999H250.741V196.345Z" fill="#CE4522"/>
<path d="M218.924 199.904V168.396H229.581C232.715 168.396 235.162 169.282 236.919 171.054C238.692 172.812 239.578 175.075 239.578 177.844C239.578 180.144 238.963 182.084 237.732 183.667C236.517 185.249 234.869 186.34 232.789 186.94L241.248 199.465V199.904H236.963L228.68 187.446H222.835V199.904H218.924ZM222.835 183.842H229.361C231.338 183.842 232.854 183.33 233.909 182.304C234.964 181.264 235.491 179.799 235.491 177.91C235.491 176.049 234.957 174.599 233.887 173.559C232.833 172.519 231.324 171.999 229.361 171.999H222.835V183.842Z" fill="#CE4522"/>
<path d="M191.194 199.904V199.465L200.51 168.396H205.783L215.144 199.465V199.904H210.947L208.618 191.665H197.632L195.281 199.904H191.194ZM198.62 188.149H207.629L203.213 172.768H203.037L198.62 188.149Z" fill="#CE4522"/>
<path d="M166.539 199.904V168.396H185.831V171.999H170.45V181.865H184.447V185.468H170.45V196.345H185.831V199.904H166.539Z" fill="#CE4522"/>
<path d="M139.205 199.904V168.396H143.116V181.821H155.311V168.396H159.244V199.904H155.311V185.468H143.116V199.904H139.205Z" fill="#CE4522"/>
<path d="M85.6553 199.904V168.396H104.947V171.999H89.5664V181.865H103.563V185.468H89.5664V196.345H104.947V199.904H85.6553Z" fill="#CE4522"/>
<path d="M57.969 199.904V168.396H68.8015C71.4822 168.396 73.6062 169.121 75.1736 170.571C76.7556 172.021 77.5466 174.028 77.5466 176.591C77.5466 179.711 76.2209 181.857 73.5696 183.029V183.205C74.2434 183.469 74.8586 183.798 75.4153 184.194C75.9719 184.589 76.5066 185.087 77.0193 185.688C77.5466 186.289 77.9568 187.028 78.2498 187.907C78.5574 188.771 78.7112 189.738 78.7112 190.808C78.7112 193.693 77.8835 195.935 76.2283 197.531C74.573 199.113 72.2073 199.904 69.1311 199.904H57.969ZM61.8362 196.345H68.6697C70.5593 196.345 72.0315 195.869 73.0862 194.917C74.1409 193.964 74.6682 192.595 74.6682 190.808C74.6682 187.146 72.6687 185.314 68.6697 185.314H61.8362V196.345ZM61.8362 181.909H67.8567C71.636 181.909 73.5256 180.136 73.5256 176.591C73.5256 173.471 71.8044 171.911 68.3621 171.911H61.8362V181.909Z" fill="#CE4522"/>
<path d="M246.434 115.999V112.396H269.461V115.999H259.925V143.904H255.97V115.999H246.434Z" fill="#CE4522"/>
<path d="M219.604 134.456H223.603C223.72 136.448 224.409 138.001 225.669 139.114C226.943 140.213 228.745 140.762 231.074 140.762C235.908 140.762 238.325 138.931 238.325 135.269C238.325 133.79 237.9 132.662 237.051 131.885C236.216 131.094 234.912 130.508 233.139 130.127L228.547 129.139C225.808 128.553 223.801 127.586 222.527 126.238C221.267 124.891 220.637 123.023 220.637 120.635C220.637 118.042 221.552 115.955 223.384 114.373C225.229 112.791 227.807 112 231.118 112C234.355 112 236.948 112.857 238.896 114.571C240.844 116.285 241.833 118.548 241.863 121.36H237.864C237.776 119.559 237.168 118.152 236.04 117.142C234.927 116.116 233.257 115.604 231.03 115.604C229.067 115.604 227.522 116.036 226.394 116.9C225.281 117.75 224.724 118.995 224.724 120.635C224.724 121.91 225.119 122.92 225.91 123.667C226.701 124.4 227.939 124.949 229.624 125.315L233.908 126.216C236.809 126.817 238.948 127.872 240.324 129.38C241.716 130.875 242.412 132.837 242.412 135.269C242.412 138.082 241.401 140.293 239.38 141.905C237.373 143.501 234.604 144.3 231.074 144.3C227.441 144.3 224.643 143.421 222.68 141.663C220.718 139.905 219.692 137.503 219.604 134.456Z" fill="#CE4522"/>
<path d="M194.027 132.786V112.396H197.938V132.698C197.938 133.636 197.975 134.449 198.048 135.137C198.121 135.826 198.282 136.543 198.531 137.291C198.781 138.023 199.117 138.631 199.542 139.114C199.967 139.583 200.56 139.971 201.322 140.279C202.084 140.572 202.985 140.718 204.025 140.718C204.801 140.718 205.497 140.645 206.112 140.499C206.727 140.337 207.24 140.132 207.65 139.883C208.075 139.62 208.441 139.283 208.749 138.873C209.056 138.462 209.298 138.045 209.474 137.62C209.65 137.195 209.789 136.69 209.891 136.104C209.994 135.518 210.06 134.976 210.089 134.478C210.118 133.965 210.133 133.372 210.133 132.698V112.396H214.11V132.786C214.11 134.485 213.934 136.009 213.583 137.356C213.231 138.704 212.667 139.913 211.891 140.982C211.129 142.037 210.082 142.857 208.749 143.443C207.43 144.014 205.856 144.3 204.025 144.3C202.223 144.3 200.663 144.014 199.344 143.443C198.041 142.872 197.008 142.059 196.246 141.004C195.485 139.949 194.921 138.748 194.554 137.4C194.203 136.038 194.027 134.5 194.027 132.786Z" fill="#CE4522"/>
<path d="M166.67 143.904V112.396H171.219L176.844 129.139H177.02L183.084 112.396H187.544V143.904H183.897V120.855H183.721L177.107 138.499H176.646L170.494 120.723H170.318V143.904H166.67Z" fill="#CE4522"/>
<path d="M112.923 143.904V112.396H120.614C122.811 112.396 124.73 112.769 126.371 113.516C128.011 114.263 129.337 115.34 130.348 116.746C131.373 118.138 132.127 119.786 132.611 121.69C133.109 123.594 133.358 125.748 133.358 128.15C133.358 129.952 133.219 131.622 132.94 133.16C132.662 134.698 132.201 136.141 131.556 137.488C130.926 138.821 130.128 139.957 129.161 140.894C128.194 141.832 126.986 142.571 125.536 143.113C124.085 143.641 122.445 143.904 120.614 143.904H112.923ZM116.834 140.345H120.218C121.625 140.345 122.862 140.132 123.932 139.708C125.016 139.268 125.887 138.689 126.546 137.972C127.22 137.239 127.762 136.338 128.172 135.269C128.597 134.2 128.89 133.094 129.051 131.951C129.212 130.809 129.293 129.542 129.293 128.15C129.293 126.773 129.212 125.513 129.051 124.371C128.89 123.228 128.597 122.129 128.172 121.075C127.762 120.005 127.22 119.112 126.546 118.394C125.887 117.662 125.016 117.083 123.932 116.658C122.862 116.219 121.625 115.999 120.218 115.999H116.834V140.345Z" fill="#CE4522"/>
<path d="M84.7537 128.15C84.7537 126.246 84.8782 124.495 85.1272 122.898C85.3909 121.302 85.8083 119.822 86.3796 118.46C86.9656 117.098 87.6907 115.948 88.5549 115.01C89.4338 114.058 90.5178 113.318 91.8069 112.791C93.1106 112.264 94.5828 112 96.2234 112C97.8494 112 99.3069 112.264 100.596 112.791C101.9 113.318 102.991 114.058 103.87 115.01C104.749 115.948 105.474 117.098 106.045 118.46C106.631 119.822 107.049 121.302 107.298 122.898C107.561 124.495 107.693 126.246 107.693 128.15C107.693 130.523 107.481 132.669 107.056 134.588C106.631 136.492 105.972 138.184 105.078 139.664C104.199 141.143 103.006 142.286 101.497 143.091C100.003 143.897 98.2449 144.3 96.2234 144.3C94.1873 144.3 92.4148 143.897 90.906 143.091C89.4119 142.286 88.218 141.143 87.3245 139.664C86.4456 138.184 85.7937 136.492 85.3689 134.588C84.9587 132.684 84.7537 130.538 84.7537 128.15ZM88.7966 128.15C88.7966 129.322 88.8406 130.398 88.9285 131.38C89.0164 132.347 89.1555 133.321 89.3459 134.302C89.551 135.269 89.8367 136.119 90.2029 136.851C90.5837 137.583 91.0378 138.243 91.5652 138.829C92.1072 139.415 92.7664 139.861 93.5427 140.169C94.3337 140.462 95.2273 140.608 96.2234 140.608C97.2195 140.608 98.1057 140.462 98.8821 140.169C99.6731 139.861 100.332 139.415 100.86 138.829C101.402 138.243 101.856 137.583 102.222 136.851C102.603 136.119 102.888 135.269 103.079 134.302C103.284 133.321 103.43 132.347 103.518 131.38C103.606 130.398 103.65 129.322 103.65 128.15C103.65 126.978 103.606 125.909 103.518 124.942C103.43 123.96 103.284 122.986 103.079 122.02C102.888 121.038 102.603 120.181 102.222 119.449C101.856 118.716 101.402 118.057 100.86 117.471C100.332 116.885 99.6731 116.446 98.8821 116.153C98.1057 115.845 97.2195 115.691 96.2234 115.691C95.0222 115.691 93.9749 115.918 93.0813 116.373C92.1877 116.827 91.47 117.427 90.928 118.174C90.4006 118.907 89.9685 119.83 89.6316 120.943C89.3093 122.056 89.0896 123.184 88.9724 124.327C88.8552 125.455 88.7966 126.729 88.7966 128.15Z" fill="#CE4522"/>
<path d="M57.7922 128.15C57.7922 126.246 57.9167 124.495 58.1658 122.898C58.4294 121.302 58.8469 119.822 59.4182 118.46C60.0042 117.098 60.7292 115.948 61.5935 115.01C62.4724 114.058 63.5564 113.318 64.8455 112.791C66.1492 112.264 67.6213 112 69.262 112C70.8879 112 72.3455 112.264 73.6345 112.791C74.9382 113.318 76.0295 114.058 76.9084 115.01C77.7874 115.948 78.5125 117.098 79.0837 118.46C79.6697 119.822 80.0872 121.302 80.3362 122.898C80.5999 124.495 80.7317 126.246 80.7317 128.15C80.7317 130.523 80.5193 132.669 80.0945 134.588C79.6697 136.492 79.0105 138.184 78.1169 139.664C77.238 141.143 76.0442 142.286 74.5354 143.091C73.0413 143.897 71.2834 144.3 69.262 144.3C67.2258 144.3 65.4534 143.897 63.9446 143.091C62.4504 142.286 61.2566 141.143 60.363 139.664C59.4841 138.184 58.8323 136.492 58.4075 134.588C57.9973 132.684 57.7922 130.538 57.7922 128.15ZM61.8352 128.15C61.8352 129.322 61.8792 130.398 61.967 131.38C62.0549 132.347 62.1941 133.321 62.3845 134.302C62.5896 135.269 62.8752 136.119 63.2415 136.851C63.6223 137.583 64.0764 138.243 64.6038 138.829C65.1458 139.415 65.8049 139.861 66.5813 140.169C67.3723 140.462 68.2659 140.608 69.262 140.608C70.2581 140.608 71.1443 140.462 71.9207 140.169C72.7117 139.861 73.3708 139.415 73.8982 138.829C74.4402 138.243 74.8943 137.583 75.2605 136.851C75.6414 136.119 75.927 135.269 76.1174 134.302C76.3225 133.321 76.469 132.347 76.5569 131.38C76.6448 130.398 76.6887 129.322 76.6887 128.15C76.6887 126.978 76.6448 125.909 76.5569 124.942C76.469 123.96 76.3225 122.986 76.1174 122.02C75.927 121.038 75.6414 120.181 75.2605 119.449C74.8943 118.716 74.4402 118.057 73.8982 117.471C73.3708 116.885 72.7117 116.446 71.9207 116.153C71.1443 115.845 70.2581 115.691 69.262 115.691C68.0608 115.691 67.0134 115.918 66.1199 116.373C65.2263 116.827 64.5085 117.427 63.9666 118.174C63.4392 118.907 63.0071 119.83 62.6702 120.943C62.3479 122.056 62.1282 123.184 62.011 124.327C61.8938 125.455 61.8352 126.729 61.8352 128.15Z" fill="#CE4522"/>
<path d="M32.6328 143.904V112.396H51.9248V115.999H36.5439V126.59H50.4087V130.171H36.5439V143.904H32.6328Z" fill="#CE4522"/>
<path d="M246.565 78.4561H250.564C250.682 80.4482 251.37 82.001 252.63 83.1143C253.904 84.2129 255.706 84.7622 258.035 84.7622C262.869 84.7622 265.286 82.9312 265.286 79.269C265.286 77.7896 264.861 76.6616 264.012 75.8853C263.177 75.0942 261.873 74.5083 260.101 74.1274L255.508 73.1387C252.769 72.5527 250.762 71.5859 249.488 70.2383C248.228 68.8906 247.598 67.0229 247.598 64.6353C247.598 62.0425 248.514 59.9551 250.345 58.373C252.19 56.791 254.769 56 258.079 56C261.316 56 263.909 56.8569 265.857 58.5708C267.806 60.2847 268.794 62.5479 268.824 65.3604H264.825C264.737 63.5586 264.129 62.1523 263.001 61.1416C261.888 60.1162 260.218 59.6035 257.991 59.6035C256.028 59.6035 254.483 60.0356 253.355 60.8999C252.242 61.7495 251.685 62.9946 251.685 64.6353C251.685 65.9097 252.081 66.9204 252.872 67.6675C253.663 68.3999 254.9 68.9492 256.585 69.3154L260.87 70.2163C263.77 70.8169 265.909 71.8716 267.286 73.3804C268.677 74.8745 269.373 76.8374 269.373 79.269C269.373 82.0815 268.362 84.2935 266.341 85.9048C264.334 87.5015 261.565 88.2998 258.035 88.2998C254.402 88.2998 251.604 87.4209 249.642 85.6631C247.679 83.9053 246.653 81.5029 246.565 78.4561Z" fill="#CE4522"/>
<path d="M221.208 87.9043V84.5205H228.965V59.7793H221.208V56.3955H240.654V59.7793H232.92V84.5205H240.654V87.9043H221.208Z" fill="#CE4522"/>
<path d="M194.027 87.9043V56.3955H197.938V69.8208H210.133V56.3955H214.066V87.9043H210.133V73.4683H197.938V87.9043H194.027Z" fill="#CE4522"/>
<path d="M165.55 59.999V56.3955H188.577V59.999H179.041V87.9043H175.086V59.999H165.55Z" fill="#CE4522"/>
<path d="M111.627 59.999V56.3955H134.654V59.999H125.118V87.9043H121.163V59.999H111.627Z" fill="#CE4522"/>
<path d="M86.1819 76.7861V56.3955H90.093V76.6982C90.093 77.6357 90.1296 78.4487 90.2029 79.1372C90.2761 79.8257 90.4373 80.5435 90.6863 81.2905C90.9353 82.0229 91.2722 82.6309 91.697 83.1143C92.1218 83.583 92.7151 83.9712 93.4768 84.2788C94.2385 84.5718 95.1394 84.7183 96.1794 84.7183C96.9558 84.7183 97.6516 84.645 98.2668 84.4985C98.8821 84.3374 99.3948 84.1323 99.8049 83.8833C100.23 83.6196 100.596 83.2827 100.904 82.8726C101.211 82.4624 101.453 82.0449 101.629 81.6201C101.804 81.1953 101.944 80.6899 102.046 80.104C102.149 79.5181 102.215 78.9761 102.244 78.478C102.273 77.9653 102.288 77.3721 102.288 76.6982V56.3955H106.265V76.7861C106.265 78.4854 106.089 80.0088 105.738 81.3564C105.386 82.7041 104.822 83.9126 104.046 84.9819C103.284 86.0366 102.237 86.8569 100.904 87.4429C99.5852 88.0142 98.0105 88.2998 96.1794 88.2998C94.3777 88.2998 92.8176 88.0142 91.4993 87.4429C90.1956 86.8716 89.1628 86.0586 88.4011 85.0039C87.6394 83.9492 87.0754 82.748 86.7092 81.4004C86.3577 80.0381 86.1819 78.5 86.1819 76.7861Z" fill="#CE4522"/>
<path d="M57.7922 72.1499C57.7922 70.2456 57.9167 68.4951 58.1658 66.8984C58.4294 65.3018 58.8469 63.8223 59.4182 62.46C60.0042 61.0977 60.7292 59.9478 61.5935 59.0103C62.4724 58.0581 63.5564 57.3184 64.8455 56.791C66.1492 56.2637 67.6213 56 69.262 56C70.8879 56 72.3455 56.2637 73.6345 56.791C74.9382 57.3184 76.0295 58.0581 76.9084 59.0103C77.7874 59.9478 78.5125 61.0977 79.0837 62.46C79.6697 63.8223 80.0872 65.3018 80.3362 66.8984C80.5999 68.4951 80.7317 70.2456 80.7317 72.1499C80.7317 74.5229 80.5193 76.6689 80.0945 78.5879C79.6697 80.4922 79.0105 82.1841 78.1169 83.6636C77.238 85.1431 76.0442 86.2856 74.5354 87.0913C73.0413 87.897 71.2834 88.2998 69.262 88.2998C67.2258 88.2998 65.4534 87.897 63.9446 87.0913C62.4504 86.2856 61.2566 85.1431 60.363 83.6636C59.4841 82.1841 58.8323 80.4922 58.4075 78.5879C57.9973 76.6836 57.7922 74.5376 57.7922 72.1499ZM61.8352 72.1499C61.8352 73.3218 61.8792 74.3984 61.967 75.3799C62.0549 76.3467 62.1941 77.3208 62.3845 78.3022C62.5896 79.269 62.8752 80.1187 63.2415 80.8511C63.6223 81.5835 64.0764 82.2427 64.6038 82.8286C65.1458 83.4146 65.8049 83.8613 66.5813 84.1689C67.3723 84.4619 68.2659 84.6084 69.262 84.6084C70.2581 84.6084 71.1443 84.4619 71.9207 84.1689C72.7117 83.8613 73.3708 83.4146 73.8982 82.8286C74.4402 82.2427 74.8943 81.5835 75.2605 80.8511C75.6414 80.1187 75.927 79.269 76.1174 78.3022C76.3225 77.3208 76.469 76.3467 76.5569 75.3799C76.6448 74.3984 76.6887 73.3218 76.6887 72.1499C76.6887 70.978 76.6448 69.9087 76.5569 68.9419C76.469 67.9604 76.3225 66.9863 76.1174 66.0195C75.927 65.0381 75.6414 64.1812 75.2605 63.4487C74.8943 62.7163 74.4402 62.0571 73.8982 61.4712C73.3708 60.8853 72.7117 60.4458 71.9207 60.1528C71.1443 59.8452 70.2581 59.6914 69.262 59.6914C68.0608 59.6914 67.0134 59.9185 66.1199 60.3726C65.2263 60.8267 64.5085 61.4272 63.9666 62.1743C63.4392 62.9067 63.0071 63.8296 62.6702 64.9429C62.3479 66.0562 62.1282 67.1841 62.011 68.3267C61.8938 69.4546 61.8352 70.729 61.8352 72.1499Z" fill="#CE4522"/>
<path d="M31.9077 87.9043V56.3955H42.7402C45.4209 56.3955 47.5449 57.1206 49.1123 58.5708C50.6943 60.021 51.4854 62.0278 51.4854 64.5913C51.4854 67.7114 50.1597 69.8574 47.5083 71.0293V71.2051C48.1821 71.4688 48.7974 71.7983 49.354 72.1938C49.9106 72.5894 50.4453 73.0874 50.958 73.688C51.4854 74.2886 51.8955 75.0283 52.1885 75.9072C52.4961 76.7715 52.6499 77.7383 52.6499 78.8076C52.6499 81.6934 51.8223 83.9346 50.167 85.5312C48.5117 87.1133 46.146 87.9043 43.0698 87.9043H31.9077ZM35.7749 84.3447H42.6084C44.498 84.3447 45.9702 83.8687 47.0249 82.9165C48.0796 81.9644 48.6069 80.5947 48.6069 78.8076C48.6069 75.1455 46.6074 73.3145 42.6084 73.3145H35.7749V84.3447ZM35.7749 69.9087H41.7954C45.5747 69.9087 47.4644 68.1362 47.4644 64.5913C47.4644 61.4712 45.7432 59.9111 42.3008 59.9111H35.7749V69.9087Z" fill="#CE4522"/>
<path d="M3.36426 87.9043V87.4648L12.6807 56.3955H17.9541L27.3145 87.4648V87.9043H23.1177L20.7886 79.6646H9.80225L7.45117 87.9043H3.36426ZM10.791 76.1489H19.7998L15.3833 60.7681H15.2075L10.791 76.1489Z" fill="#CE4522"/>
<path d="M247.774 31.9043V0.395508H252.059L264.1 24.2578H264.297V0.395508H268.165V31.9043H263.836L251.773 8.1958H251.597V31.9043H247.774Z" fill="#CE4522"/>
<path d="M219.56 16.1499C219.56 14.2456 219.685 12.4951 219.934 10.8984C220.198 9.30176 220.615 7.82227 221.186 6.45996C221.772 5.09766 222.497 3.94775 223.362 3.01025C224.24 2.05811 225.324 1.31836 226.614 0.791016C227.917 0.263672 229.389 0 231.03 0C232.656 0 234.114 0.263672 235.403 0.791016C236.706 1.31836 237.798 2.05811 238.677 3.01025C239.555 3.94775 240.281 5.09766 240.852 6.45996C241.438 7.82227 241.855 9.30176 242.104 10.8984C242.368 12.4951 242.5 14.2456 242.5 16.1499C242.5 18.5229 242.287 20.6689 241.863 22.5879C241.438 24.4922 240.779 26.1841 239.885 27.6636C239.006 29.1431 237.812 30.2856 236.303 31.0913C234.809 31.897 233.052 32.2998 231.03 32.2998C228.994 32.2998 227.221 31.897 225.713 31.0913C224.219 30.2856 223.025 29.1431 222.131 27.6636C221.252 26.1841 220.6 24.4922 220.176 22.5879C219.765 20.6836 219.56 18.5376 219.56 16.1499ZM223.603 16.1499C223.603 17.3218 223.647 18.3984 223.735 19.3799C223.823 20.3467 223.962 21.3208 224.153 22.3022C224.358 23.269 224.643 24.1187 225.01 24.8511C225.39 25.5835 225.844 26.2427 226.372 26.8286C226.914 27.4146 227.573 27.8613 228.349 28.1689C229.14 28.4619 230.034 28.6084 231.03 28.6084C232.026 28.6084 232.912 28.4619 233.689 28.1689C234.48 27.8613 235.139 27.4146 235.666 26.8286C236.208 26.2427 236.662 25.5835 237.029 24.8511C237.409 24.1187 237.695 23.269 237.885 22.3022C238.091 21.3208 238.237 20.3467 238.325 19.3799C238.413 18.3984 238.457 17.3218 238.457 16.1499C238.457 14.978 238.413 13.9087 238.325 12.9419C238.237 11.9604 238.091 10.9863 237.885 10.0195C237.695 9.03809 237.409 8.18115 237.029 7.44873C236.662 6.71631 236.208 6.05713 235.666 5.47119C235.139 4.88525 234.48 4.4458 233.689 4.15283C232.912 3.84521 232.026 3.69141 231.03 3.69141C229.829 3.69141 228.781 3.91846 227.888 4.37256C226.994 4.82666 226.277 5.42725 225.735 6.17432C225.207 6.90674 224.775 7.82959 224.438 8.94287C224.116 10.0562 223.896 11.1841 223.779 12.3267C223.662 13.4546 223.603 14.729 223.603 16.1499Z" fill="#CE4522"/>
<path d="M194.247 31.9043V28.5205H202.003V3.7793H194.247V0.395508H213.693V3.7793H205.958V28.5205H213.693V31.9043H194.247Z" fill="#CE4522"/>
<path d="M166.89 31.9043V0.395508H171.175L183.216 24.2578H183.414V0.395508H187.281V31.9043H182.952L170.889 8.1958H170.713V31.9043H166.89Z" fill="#CE4522"/>
<path d="M140.324 31.9043V28.5205H148.081V3.7793H140.324V0.395508H159.77V3.7793H152.036V28.5205H159.77V31.9043H140.324Z" fill="#CE4522"/>
<path d="M113.055 31.9043V0.395508H123.316C126.466 0.395508 128.912 1.31104 130.655 3.14209C132.398 4.9585 133.27 7.36084 133.27 10.3491C133.27 13.4106 132.391 15.8643 130.633 17.71C128.875 19.5557 126.437 20.4785 123.316 20.4785H116.966V31.9043H113.055ZM116.966 16.875H122.811C127.074 16.875 129.205 14.6997 129.205 10.3491C129.205 8.29834 128.663 6.72363 127.579 5.625C126.495 4.51172 124.906 3.95508 122.811 3.95508H116.966V16.875Z" fill="#CE4522"/>
<path d="M84.7537 16.1499C84.7537 14.2456 84.8782 12.4951 85.1272 10.8984C85.3909 9.30176 85.8083 7.82227 86.3796 6.45996C86.9656 5.09766 87.6907 3.94775 88.5549 3.01025C89.4338 2.05811 90.5178 1.31836 91.8069 0.791016C93.1106 0.263672 94.5828 0 96.2234 0C97.8494 0 99.3069 0.263672 100.596 0.791016C101.9 1.31836 102.991 2.05811 103.87 3.01025C104.749 3.94775 105.474 5.09766 106.045 6.45996C106.631 7.82227 107.049 9.30176 107.298 10.8984C107.561 12.4951 107.693 14.2456 107.693 16.1499C107.693 18.5229 107.481 20.6689 107.056 22.5879C106.631 24.4922 105.972 26.1841 105.078 27.6636C104.199 29.1431 103.006 30.2856 101.497 31.0913C100.003 31.897 98.2449 32.2998 96.2234 32.2998C94.1873 32.2998 92.4148 31.897 90.906 31.0913C89.4119 30.2856 88.218 29.1431 87.3245 27.6636C86.4456 26.1841 85.7937 24.4922 85.3689 22.5879C84.9587 20.6836 84.7537 18.5376 84.7537 16.1499ZM88.7966 16.1499C88.7966 17.3218 88.8406 18.3984 88.9285 19.3799C89.0164 20.3467 89.1555 21.3208 89.3459 22.3022C89.551 23.269 89.8367 24.1187 90.2029 24.8511C90.5837 25.5835 91.0378 26.2427 91.5652 26.8286C92.1072 27.4146 92.7664 27.8613 93.5427 28.1689C94.3337 28.4619 95.2273 28.6084 96.2234 28.6084C97.2195 28.6084 98.1057 28.4619 98.8821 28.1689C99.6731 27.8613 100.332 27.4146 100.86 26.8286C101.402 26.2427 101.856 25.5835 102.222 24.8511C102.603 24.1187 102.888 23.269 103.079 22.3022C103.284 21.3208 103.43 20.3467 103.518 19.3799C103.606 18.3984 103.65 17.3218 103.65 16.1499C103.65 14.978 103.606 13.9087 103.518 12.9419C103.43 11.9604 103.284 10.9863 103.079 10.0195C102.888 9.03809 102.603 8.18115 102.222 7.44873C101.856 6.71631 101.402 6.05713 100.86 5.47119C100.332 4.88525 99.6731 4.4458 98.8821 4.15283C98.1057 3.84521 97.2195 3.69141 96.2234 3.69141C95.0222 3.69141 93.9749 3.91846 93.0813 4.37256C92.1877 4.82666 91.47 5.42725 90.928 6.17432C90.4006 6.90674 89.9685 7.82959 89.6316 8.94287C89.3093 10.0562 89.0896 11.1841 88.9724 12.3267C88.8552 13.4546 88.7966 14.729 88.7966 16.1499Z" fill="#CE4522"/>
<path d="M30.8311 0.856934V0.395508H34.7861L42.2568 14.9854H42.4326L49.8594 0.395508H53.7266V0.856934L44.2783 18.7646V31.9043H40.3232V18.7646L30.8311 0.856934Z" fill="#CE4522"/>
<path d="M4.90234 31.9043V0.395508H9.45068L15.0757 17.1387H15.2515L21.3159 0.395508H25.7764V31.9043H22.1289V8.85498H21.9531L15.3394 26.499H14.8779L8.72559 8.72314H8.5498V31.9043H4.90234Z" fill="#CE4522"/>
<path d="M245.885 299.904V268.396H256.542C259.677 268.396 262.123 269.282 263.881 271.054C265.653 272.812 266.54 275.075 266.54 277.844C266.54 280.144 265.924 282.084 264.694 283.667C263.478 285.249 261.83 286.34 259.75 286.94L268.209 299.465V299.904H263.925L255.641 287.446H249.796V299.904H245.885ZM249.796 283.842H256.322C258.3 283.842 259.816 283.33 260.871 282.304C261.925 281.264 262.453 279.799 262.453 277.91C262.453 276.049 261.918 274.599 260.849 273.559C259.794 272.519 258.285 271.999 256.322 271.999H249.796V283.842Z" fill="#1F1915"/>
<path d="M220.462 299.904V268.396H239.754V271.999H224.373V282.59H238.238V286.171H224.373V299.904H220.462Z" fill="#CE4522"/>
<path d="M191.699 284.15C191.699 282.246 191.823 280.495 192.073 278.898C192.336 277.302 192.754 275.822 193.325 274.46C193.911 273.098 194.636 271.948 195.5 271.01C196.379 270.058 197.463 269.318 198.752 268.791C200.056 268.264 201.528 268 203.169 268C204.795 268 206.252 268.264 207.541 268.791C208.845 269.318 209.936 270.058 210.815 271.01C211.694 271.948 212.419 273.098 212.99 274.46C213.576 275.822 213.994 277.302 214.243 278.898C214.507 280.495 214.638 282.246 214.638 284.15C214.638 286.523 214.426 288.669 214.001 290.588C213.576 292.492 212.917 294.184 212.024 295.664C211.145 297.143 209.951 298.286 208.442 299.091C206.948 299.897 205.19 300.3 203.169 300.3C201.133 300.3 199.36 299.897 197.851 299.091C196.357 298.286 195.163 297.143 194.27 295.664C193.391 294.184 192.739 292.492 192.314 290.588C191.904 288.684 191.699 286.538 191.699 284.15ZM195.742 284.15C195.742 285.322 195.786 286.398 195.874 287.38C195.962 288.347 196.101 289.321 196.291 290.302C196.496 291.269 196.782 292.119 197.148 292.851C197.529 293.583 197.983 294.243 198.51 294.829C199.052 295.415 199.712 295.861 200.488 296.169C201.279 296.462 202.173 296.608 203.169 296.608C204.165 296.608 205.051 296.462 205.827 296.169C206.618 295.861 207.278 295.415 207.805 294.829C208.347 294.243 208.801 293.583 209.167 292.851C209.548 292.119 209.834 291.269 210.024 290.302C210.229 289.321 210.376 288.347 210.464 287.38C210.552 286.398 210.595 285.322 210.595 284.15C210.595 282.978 210.552 281.909 210.464 280.942C210.376 279.96 210.229 278.986 210.024 278.02C209.834 277.038 209.548 276.181 209.167 275.449C208.801 274.716 208.347 274.057 207.805 273.471C207.278 272.885 206.618 272.446 205.827 272.153C205.051 271.845 204.165 271.691 203.169 271.691C201.968 271.691 200.92 271.918 200.027 272.373C199.133 272.827 198.415 273.427 197.873 274.174C197.346 274.907 196.914 275.83 196.577 276.943C196.255 278.056 196.035 279.184 195.918 280.327C195.801 281.455 195.742 282.729 195.742 284.15Z" fill="#CE4522"/>
<path d="M165.001 299.904V268.396H175.658C178.793 268.396 181.239 269.282 182.997 271.054C184.769 272.812 185.656 275.075 185.656 277.844C185.656 280.144 185.04 282.084 183.81 283.667C182.594 285.249 180.946 286.34 178.866 286.94L187.325 299.465V299.904H183.041L174.757 287.446H168.912V299.904H165.001ZM168.912 283.842H175.438C177.416 283.842 178.932 283.33 179.987 282.304C181.041 281.264 181.569 279.799 181.569 277.91C181.569 276.049 181.034 274.599 179.965 273.559C178.91 272.519 177.401 271.999 175.438 271.999H168.912V283.842Z" fill="#1F1915"/>
</svg>
